<svg xmlns="http://www.w3.org/2000/svg" viewBox="0 0 1000 500"><path d="M334.5,483.5 L333.7,485.1 L332.9,486.4 L327.1,486.0 L320.9,486.2 L317.4,485.2 L317.4,485.1 L315.9,484.2 L322.1,484.3 L328.1,484.6 L330.2,483.4 L331.6,482.3 L334.5,483.5 Z M57.8,481.9 L52.4,482.3 L48.8,481.3 L47.2,480.3 L47.0,480.1 L45.2,479.3 L46.9,478.2 L52.1,478.6 L54.9,479.6 L57.0,480.6 L57.8,481.9 Z M374.6,477.7 L378.0,478.9 L379.2,480.7 L379.5,482.0 L379.6,483.5 L375.3,484.4 L370.8,485.2 L365.6,485.9 L359.8,486.5 L353.2,486.3 L349.5,485.3 L350.0,484.1 L356.0,483.3 L358.4,482.3 L360.1,481.0 L361.4,479.9 L363.0,478.9 L364.8,477.7 L366.2,477.7 L370.4,477.0 L374.6,477.7 Z M163.3,464.2 L166.9,464.7 L170.2,464.2 L168.6,465.2 L166.0,466.0 L162.2,465.7 L159.4,464.7 L160.0,463.7 L163.3,464.2 Z M151.2,464.2 L155.5,465.3 L153.8,465.2 L150.2,464.9 L146.4,464.1 L148.5,463.5 L151.2,464.2 Z M225.1,459.6 L228.1,460.0 L231.1,459.7 L232.8,461.3 L230.6,461.1 L227.2,461.2 L223.8,461.1 L220.0,461.3 L217.2,460.7 L215.8,459.5 L217.5,459.0 L221.0,459.4 L225.1,459.6 Z M309.9,456.7 L310.2,458.0 L309.7,459.2 L308.9,460.3 L305.7,460.7 L302.6,461.3 L298.9,461.2 L300.3,460.1 L297.0,460.5 L293.9,460.9 L291.8,460.0 L291.6,458.8 L294.7,457.6 L296.6,457.3 L299.8,457.4 L300.6,455.9 L300.8,454.8 L300.7,452.4 L302.3,451.0 L304.9,450.6 L306.3,451.7 L307.0,452.8 L308.2,454.1 L309.1,455.4 L309.9,456.7 Z M0.0,497.4 L0.2,497.4 L2.6,495.7 L7.6,496.6 L7.9,496.5 L8.7,496.2 L9.7,495.9 L10.5,495.7 L10.9,495.5 L11.3,495.5 L11.6,495.6 L15.6,496.8 L19.1,495.6 L19.8,495.4 L27.9,494.9 L30.6,495.6 L31.9,495.9 L36.1,496.9 L43.9,497.7 L50.2,498.6 L60.9,499.3 L68.9,498.5 L80.7,499.1 L87.4,500.0 L94.8,499.1 L102.5,498.3 L103.1,496.9 L92.1,496.8 L83.2,496.1 L80.8,495.0 L73.4,494.3 L73.9,493.0 L74.9,491.8 L75.9,490.7 L75.4,489.5 L70.8,488.7 L68.6,487.6 L64.3,486.7 L71.1,486.9 L77.5,486.4 L81.5,487.4 L86.5,486.5 L91.1,485.4 L93.3,484.4 L92.3,483.2 L88.7,482.4 L84.6,481.5 L78.9,481.4 L73.9,481.0 L68.5,480.7 L66.7,479.6 L63.1,478.6 L61.0,477.6 L60.1,474.2 L61.5,474.5 L64.0,475.5 L68.5,475.2 L72.9,474.8 L75.2,476.0 L79.6,475.7 L83.3,475.1 L86.8,474.3 L90.0,473.3 L94.2,473.0 L94.0,471.9 L93.1,470.8 L93.9,469.8 L97.5,469.3 L99.1,470.2 L103.4,469.7 L106.6,468.9 L110.5,468.9 L114.3,468.6 L118.0,467.9 L121.0,467.2 L124.4,466.6 L126.6,466.8 L128.5,467.0 L132.6,466.6 L136.3,467.1 L140.1,467.1 L143.8,466.7 L147.5,466.9 L151.7,467.2 L155.5,467.1 L159.6,467.2 L163.7,467.2 L167.5,467.1 L170.3,466.2 L173.7,465.8 L177.2,466.4 L180.5,465.9 L183.5,464.9 L185.3,465.8 L186.3,466.8 L188.1,467.8 L190.9,466.9 L194.3,468.0 L198.0,468.4 L201.2,469.2 L205.1,469.0 L208.7,468.5 L212.9,468.6 L216.6,469.0 L220.4,469.5 L221.9,468.3 L220.1,467.3 L218.7,466.2 L215.2,466.0 L213.6,464.9 L213.0,463.8 L212.0,461.6 L214.1,462.0 L217.8,462.2 L221.4,462.0 L224.6,462.5 L227.5,463.4 L228.6,464.4 L232.4,464.6 L236.0,464.2 L239.8,463.6 L243.2,463.2 L246.1,463.9 L249.8,463.7 L252.1,461.4 L254.4,462.8 L257.6,463.3 L261.1,463.0 L263.4,464.2 L267.0,464.3 L270.4,464.6 L273.7,465.3 L275.9,464.2 L277.0,463.1 L279.7,464.3 L283.5,464.0 L286.4,464.6 L288.3,465.6 L292.0,465.3 L294.9,464.7 L297.7,463.9 L301.1,463.5 L305.0,463.2 L308.5,462.8 L311.2,462.1 L312.9,461.2 L313.5,459.9 L313.2,458.7 L312.3,457.6 L311.3,456.4 L310.5,455.3 L309.8,454.2 L309.6,453.1 L309.9,451.9 L311.2,450.8 L312.3,449.6 L312.7,448.4 L312.2,447.1 L311.8,446.0 L313.2,444.7 L314.7,443.8 L316.5,442.7 L318.4,441.8 L320.6,440.9 L321.7,439.6 L323.3,438.8 L325.0,438.1 L327.7,437.9 L329.4,437.0 L331.4,436.4 L333.6,436.0 L335.7,435.3 L337.2,434.4 L339.4,434.0 L341.0,434.8 L340.0,435.7 L337.2,436.6 L336.0,437.2 L333.9,436.8 L331.6,437.1 L329.7,437.8 L327.7,438.5 L326.4,439.4 L326.0,440.5 L326.1,441.6 L327.4,442.6 L325.5,443.3 L322.9,443.6 L321.4,444.5 L319.8,445.5 L318.0,446.7 L317.6,447.8 L318.6,449.1 L320.0,450.0 L322.3,450.7 L324.5,451.6 L325.6,452.8 L326.2,453.9 L327.0,455.0 L328.3,456.0 L329.1,457.1 L329.5,459.8 L330.3,460.9 L330.5,462.1 L331.4,463.2 L331.0,464.8 L329.5,466.0 L327.9,467.0 L324.2,467.4 L322.9,468.4 L321.2,469.4 L317.1,470.5 L313.4,471.0 L309.9,471.6 L306.1,472.3 L303.9,473.5 L299.4,473.6 L294.5,473.5 L290.1,473.7 L285.4,473.7 L286.3,474.9 L290.6,475.4 L293.7,476.2 L295.4,477.2 L292.3,478.2 L287.5,477.9 L283.5,478.6 L283.4,479.9 L283.3,481.0 L286.5,482.0 L287.1,483.1 L290.7,484.2 L296.5,484.7 L301.5,485.5 L305.5,486.4 L310.6,487.3 L317.5,487.8 L324.3,488.6 L329.0,489.5 L334.2,490.4 L336.9,491.8 L338.3,492.9 L341.6,491.9 L346.2,491.0 L351.1,490.1 L356.8,489.3 L361.8,488.5 L368.7,488.5 L375.5,488.9 L381.1,489.6 L382.9,488.3 L386.7,487.4 L393.8,487.4 L399.3,486.7 L404.5,486.1 L410.3,485.7 L416.4,485.2 L420.7,484.4 L418.7,483.4 L417.5,482.3 L417.5,481.2 L412.2,481.4 L406.4,481.8 L401.0,481.8 L400.2,480.7 L400.6,478.5 L401.9,477.9 L405.8,477.2 L410.5,476.5 L413.9,475.6 L417.3,474.8 L419.8,473.6 L423.6,473.1 L427.3,472.7 L429.2,472.4 L433.5,472.3 L437.6,471.9 L441.0,471.3 L444.4,470.6 L447.5,470.0 L451.3,469.0 L453.8,468.0 L456.4,467.2 L457.2,466.0 L454.3,465.3 L455.2,464.1 L457.1,463.2 L460.0,462.6 L463.0,461.9 L465.9,461.0 L468.0,459.8 L469.4,458.4 L471.4,457.6 L474.7,457.8 L476.1,458.8 L479.4,458.9 L479.5,457.8 L480.9,456.6 L483.9,456.9 L484.6,458.0 L487.9,458.2 L491.5,457.7 L495.0,457.3 L498.2,457.5 L499.4,458.7 L502.4,457.7 L505.2,457.2 L508.4,456.8 L511.5,456.4 L514.3,455.7 L517.4,455.3 L519.8,454.6 L521.5,453.6 L523.6,454.3 L526.5,453.9 L528.5,455.3 L530.0,456.4 L533.2,455.8 L534.5,454.6 L537.3,453.8 L540.9,454.0 L542.0,455.1 L544.3,454.0 L547.3,453.6 L550.6,453.5 L553.5,453.6 L556.6,453.9 L559.6,454.1 L560.9,455.1 L562.7,455.9 L565.7,455.4 L569.0,455.3 L572.2,455.3 L575.3,455.3 L578.0,454.8 L581.0,454.5 L583.4,453.7 L586.0,453.2 L588.9,452.9 L591.0,452.1 L592.5,450.4 L594.1,449.5 L597.0,449.9 L598.1,451.0 L600.4,451.7 L603.3,451.4 L605.3,452.5 L607.4,453.2 L610.2,452.5 L611.2,451.3 L613.7,450.7 L616.6,449.8 L619.3,449.3 L622.5,448.8 L624.7,448.1 L627.0,447.4 L629.2,446.8 L631.8,447.1 L634.3,446.1 L636.1,445.3 L638.7,445.4 L641.0,444.7 L641.5,443.6 L643.9,442.8 L646.1,442.2 L648.9,441.8 L651.5,441.5 L653.9,441.7 L656.5,442.0 L658.8,442.8 L659.0,444.1 L661.5,445.1 L663.2,445.9 L666.5,446.2 L668.3,447.0 L670.6,447.8 L673.3,448.0 L675.5,447.4 L677.9,446.2 L680.5,446.9 L683.3,447.2 L685.9,447.6 L688.6,447.8 L691.4,447.8 L693.6,450.9 L693.5,451.6 L693.2,452.9 L690.5,453.7 L688.4,454.8 L688.7,455.9 L691.8,455.9 L691.5,457.0 L690.1,458.1 L688.7,459.4 L690.9,460.3 L694.1,460.6 L697.3,460.1 L698.8,458.9 L699.7,457.8 L701.3,456.9 L703.0,456.0 L703.7,455.0 L705.2,453.5 L706.9,453.2 L710.1,453.1 L712.8,452.8 L715.7,452.3 L717.0,451.1 L717.9,450.0 L719.8,448.9 L722.5,448.2 L724.8,447.6 L726.3,446.6 L727.9,446.1 L729.9,445.6 L732.7,445.9 L735.2,445.6 L737.9,445.3 L741.0,445.5 L743.0,444.7 L744.4,442.7 L745.4,443.5 L746.7,444.9 L749.1,445.5 L751.7,445.7 L754.4,445.4 L757.2,445.6 L759.9,445.6 L761.6,445.4 L763.9,445.5 L766.1,446.2 L768.6,445.8 L771.6,445.8 L774.1,445.4 L777.0,445.8 L778.8,444.8 L780.3,443.8 L782.2,443.0 L785.6,440.8 L787.4,441.2 L789.6,442.0 L791.4,443.0 L794.9,444.8 L797.7,444.9 L800.2,444.9 L803.2,444.5 L806.2,444.1 L808.5,443.3 L810.4,442.5 L813.5,442.3 L815.6,441.7 L817.7,442.3 L819.2,443.2 L821.1,444.1 L824.2,444.0 L826.1,444.8 L829.4,445.5 L832.9,445.8 L835.7,445.6 L837.9,444.7 L839.8,443.7 L842.3,443.5 L844.8,443.9 L847.7,444.2 L850.3,443.7 L852.8,443.7 L855.2,444.0 L857.8,444.3 L860.3,443.8 L863.3,443.3 L866.1,443.2 L869.3,443.2 L871.8,442.9 L874.3,442.7 L875.1,441.2 L875.2,440.0 L876.9,440.8 L877.4,442.2 L878.3,443.4 L879.5,444.4 L881.8,444.9 L885.0,444.7 L888.6,444.7 L891.1,444.5 L894.8,444.5 L897.4,444.4 L901.0,444.5 L904.1,444.8 L906.1,445.7 L905.6,446.8 L907.3,447.7 L910.3,448.4 L913.4,449.1 L917.0,449.6 L920.8,450.1 L923.6,450.6 L926.8,450.6 L928.6,449.6 L931.0,450.4 L933.1,451.4 L935.6,452.1 L939.0,452.4 L942.2,452.7 L943.5,453.9 L946.7,454.6 L948.8,455.6 L951.9,456.1 L955.1,456.0 L958.1,456.2 L961.4,456.1 L964.7,456.4 L967.8,456.8 L970.7,457.5 L973.6,458.0 L975.6,458.9 L975.2,460.1 L973.8,461.1 L972.5,462.4 L971.5,463.5 L970.2,464.7 L966.6,465.2 L965.0,466.2 L961.4,466.8 L960.1,468.0 L958.2,469.1 L956.2,470.0 L955.1,471.2 L954.4,472.3 L954.1,473.7 L954.1,474.8 L955.7,475.9 L956.3,477.0 L957.6,478.1 L962.8,478.5 L963.9,479.7 L958.9,480.2 L954.6,480.8 L949.3,481.0 L947.0,482.6 L946.5,484.0 L945.3,485.1 L943.9,486.2 L947.6,487.2 L949.0,488.4 L951.4,489.5 L954.7,490.5 L958.6,491.4 L962.8,492.4 L969.1,493.3 L970.6,494.7 L978.6,495.4 L979.1,495.6 L981.2,496.5 L988.8,495.7 L995.2,496.6 L0.0,497.4 Z M311.8,406.2 L315.4,408.0 L319.3,408.7 L318.1,410.2 L315.4,410.3 L314.0,409.3 L313.1,410.5 L310.7,411.4 L307.7,411.0 L305.7,410.2 L302.8,409.7 L299.3,408.1 L296.4,406.5 L292.6,403.2 L294.9,403.8 L298.8,405.8 L302.5,406.8 L303.9,405.5 L304.8,403.5 L307.4,402.2 L309.4,402.6 L310.4,404.0 L311.8,406.2 Z M337.4,398.1 L339.6,399.4 L338.8,400.4 L335.0,401.3 L333.8,400.3 L331.4,401.6 L330.0,400.3 L333.3,398.5 L335.7,399.2 L337.4,398.1 Z M695.2,393.9 L691.0,394.1 L690.9,392.6 L691.3,391.3 L691.5,390.7 L693.3,391.7 L695.9,392.0 L696.0,392.6 L695.2,393.9 Z M903.9,367.6 L906.6,368.6 L908.1,368.2 L910.2,367.7 L911.9,367.8 L912.1,371.4 L911.2,372.4 L910.9,374.8 L909.9,373.9 L908.0,376.0 L907.4,375.8 L905.7,375.7 L904.0,373.2 L903.6,371.3 L902.0,368.7 L902.1,367.3 L903.9,367.6 Z M980.6,368.0 L981.2,369.2 L983.2,368.0 L984.0,369.2 L984.0,370.5 L983.0,371.9 L981.2,374.0 L979.7,375.2 L980.8,376.6 L978.6,376.7 L976.3,377.8 L975.5,379.7 L973.9,382.7 L971.7,384.0 L970.4,384.9 L967.8,384.8 L966.0,383.8 L963.0,383.6 L962.5,382.6 L964.0,380.4 L967.5,377.4 L969.3,376.9 L971.3,375.8 L973.7,374.2 L975.3,372.7 L976.6,370.5 L977.6,369.7 L978.0,368.1 L980.0,366.7 L980.6,368.0 Z M985.0,353.9 L987.0,357.0 L987.1,355.0 L988.4,355.8 L988.8,358.0 L991.0,359.0 L992.9,359.2 L994.5,358.1 L995.9,358.5 L995.2,361.1 L994.4,362.8 L992.2,362.7 L991.5,363.6 L991.8,364.9 L991.3,365.5 L990.3,367.1 L988.9,369.1 L986.8,370.3 L986.3,369.5 L985.1,369.1 L986.7,366.6 L985.8,365.0 L982.8,363.8 L982.9,362.7 L984.9,361.7 L985.4,359.4 L985.3,357.5 L984.1,355.5 L984.2,355.0 L982.9,353.8 L980.7,351.2 L979.5,349.1 L980.6,348.9 L982.1,350.5 L984.2,351.3 L985.0,353.9 Z M964.2,312.6 L963.2,313.3 L961.6,312.5 L959.6,311.1 L957.9,309.6 L956.0,307.5 L955.6,306.5 L956.8,306.5 L958.4,307.5 L959.6,308.5 L960.5,309.4 L962.8,311.2 L964.2,312.6 Z M995.5,298.3 L996.4,299.2 L996.0,300.7 L994.3,301.1 L992.7,300.8 L992.5,299.5 L993.5,298.4 L994.8,298.8 L995.5,298.3 Z M0.0,296.0 L998.2,296.7 L996.5,297.4 L996.1,296.3 L997.5,295.6 L998.4,295.5 L0.0,294.6 L0.6,294.4 L0.2,295.8 L0.0,296.0 Z M966.2,295.7 L965.3,296.1 L964.4,294.8 L964.5,294.0 L966.2,295.7 Z M964.2,291.2 L964.6,293.6 L963.9,293.2 L963.3,293.4 L962.9,292.6 L962.9,290.3 L964.2,291.2 Z M639.0,287.1 L639.5,290.7 L640.2,292.1 L639.9,293.5 L639.4,294.4 L638.5,292.6 L638.0,293.5 L638.5,295.7 L638.3,296.9 L637.5,297.6 L637.3,300.1 L636.2,303.6 L634.9,307.6 L633.1,313.2 L632.1,317.4 L630.8,320.8 L628.6,321.5 L626.1,322.7 L624.5,322.0 L622.3,320.9 L621.6,319.4 L621.4,316.7 L620.4,314.4 L620.1,312.3 L620.6,310.1 L621.9,309.6 L621.9,308.6 L623.3,306.4 L623.5,304.5 L622.9,303.1 L622.3,301.3 L622.1,298.5 L623.1,296.9 L623.5,295.0 L624.8,294.9 L626.4,294.3 L627.4,293.8 L628.6,293.7 L630.2,292.0 L632.5,290.2 L633.3,288.7 L633.0,287.5 L634.1,287.8 L635.7,285.8 L635.7,284.0 L636.7,282.7 L637.6,283.9 L638.4,285.2 L639.0,287.1 Z M898.8,287.8 L899.8,290.1 L901.6,289.0 L902.5,290.2 L903.8,291.4 L903.5,292.7 L904.1,295.2 L904.5,296.7 L905.2,297.0 L906.0,299.6 L905.7,301.1 L906.6,303.1 L909.6,304.6 L911.6,306.1 L913.5,307.3 L913.1,308.1 L914.7,309.9 L915.8,313.1 L916.9,312.5 L918.0,313.7 L918.7,313.3 L919.2,316.4 L921.1,318.2 L922.4,319.4 L924.6,321.7 L925.4,324.1 L925.4,325.8 L925.3,327.6 L926.6,330.1 L926.4,332.8 L925.9,334.1 L925.2,336.8 L925.2,338.5 L924.7,340.6 L923.5,343.3 L921.4,344.7 L920.4,347.0 L919.5,348.5 L918.6,351.0 L917.6,352.5 L916.9,354.7 L916.5,356.7 L916.7,357.7 L915.1,358.7 L912.0,358.8 L909.4,360.0 L908.1,361.1 L906.4,362.4 L904.1,361.1 L902.4,360.6 L902.9,359.0 L901.3,359.6 L898.9,361.7 L896.5,360.9 L894.9,360.5 L893.3,360.3 L890.7,359.4 L888.9,357.6 L888.3,355.3 L887.7,353.9 L886.3,352.7 L883.7,352.3 L884.6,350.9 L883.9,348.7 L882.5,350.7 L880.1,351.3 L881.5,349.6 L882.0,347.9 L883.0,346.5 L882.8,344.3 L880.5,346.8 L878.8,347.8 L877.7,350.2 L875.6,349.0 L875.7,347.4 L873.9,345.2 L872.5,344.1 L873.0,343.5 L869.4,341.7 L867.5,341.6 L864.8,340.1 L859.8,340.4 L856.2,341.5 L853.1,342.5 L850.4,342.3 L847.5,343.8 L845.1,344.5 L844.5,346.0 L843.5,347.2 L841.1,347.3 L839.4,347.5 L836.9,347.0 L834.9,347.3 L833.0,347.5 L831.4,349.0 L830.6,348.9 L829.2,349.7 L827.8,350.7 L825.8,350.6 L824.0,350.6 L821.0,348.7 L819.5,348.1 L819.6,346.4 L821.0,346.0 L821.4,345.4 L821.3,344.3 L821.7,342.2 L821.4,340.5 L819.9,337.5 L819.4,335.8 L819.6,334.1 L818.4,332.2 L818.4,331.3 L817.1,330.2 L816.8,327.8 L815.2,325.5 L814.8,324.3 L816.0,325.5 L815.1,322.8 L816.5,323.6 L817.3,324.8 L817.3,323.3 L815.9,320.9 L815.6,320.0 L815.0,319.1 L815.3,317.4 L815.8,316.7 L816.2,315.2 L815.9,313.5 L817.1,311.4 L817.3,313.6 L818.5,311.6 L820.7,310.6 L822.1,309.3 L824.2,308.3 L825.5,308.0 L826.2,308.4 L828.4,307.3 L830.1,307.0 L830.5,306.3 L831.3,306.0 L832.8,306.1 L835.7,305.2 L837.2,303.9 L837.9,302.4 L839.6,300.9 L839.7,299.7 L839.8,298.1 L841.7,295.6 L842.9,298.1 L844.1,297.5 L843.1,296.1 L843.9,294.7 L845.2,295.3 L845.5,293.1 L847.0,291.6 L847.7,290.5 L849.1,290.0 L849.1,289.1 L850.3,289.5 L850.4,288.7 L851.6,288.3 L853.0,287.9 L855.0,289.3 L856.6,291.0 L858.3,291.0 L860.1,291.3 L859.5,289.7 L860.8,287.3 L862.1,286.6 L861.6,285.8 L862.8,284.1 L864.5,283.1 L865.9,283.4 L868.3,282.9 L868.2,281.4 L866.2,280.4 L867.7,280.0 L869.5,280.7 L871.0,281.9 L873.3,282.7 L874.1,282.4 L875.8,283.3 L877.4,282.4 L878.5,282.7 L879.1,282.1 L880.4,283.6 L879.7,285.2 L878.6,286.4 L877.7,286.5 L878.0,287.6 L877.2,289.1 L876.2,290.6 L876.4,291.4 L878.6,293.0 L880.7,294.0 L882.2,295.0 L884.2,296.8 L885.0,296.7 L886.4,297.5 L886.8,298.4 L889.5,299.4 L891.3,298.4 L891.9,296.8 L892.4,295.5 L892.8,293.9 L893.6,291.5 L893.2,290.1 L893.4,289.3 L893.1,287.6 L893.5,285.3 L894.0,284.7 L893.6,283.8 L894.2,282.2 L894.8,280.6 L894.8,279.7 L895.9,278.6 L896.7,280.1 L896.8,281.9 L897.5,282.3 L897.7,283.5 L898.7,285.0 L898.9,286.7 L898.8,287.8 Z M950.3,278.1 L951.1,279.1 L949.2,279.1 L948.1,277.2 L949.8,278.0 L950.3,278.1 Z M835.3,277.3 L834.1,277.4 L830.5,275.3 L833.1,274.8 L834.5,275.7 L835.5,276.6 L835.3,277.3 Z M946.8,276.3 L945.7,276.3 L944.0,276.0 L943.4,275.6 L943.6,274.4 L945.4,274.9 L946.4,275.5 L946.8,276.3 Z M949.1,275.5 L948.7,276.0 L946.6,273.4 L946.1,271.7 L947.0,271.7 L948.0,274.0 L949.1,275.5 Z M845.7,277.1 L843.3,277.7 L842.9,277.3 L843.2,276.3 L844.4,274.5 L847.1,273.4 L847.5,272.7 L849.8,272.0 L851.8,271.9 L852.7,271.5 L853.7,271.9 L852.7,272.7 L849.8,274.0 L847.5,274.8 L845.7,277.1 Z M827.5,271.0 L828.5,271.8 L830.2,271.6 L830.9,272.8 L827.7,273.4 L825.8,273.8 L824.3,273.8 L825.2,272.1 L826.8,272.1 L827.5,271.0 Z M841.4,271.0 L841.0,272.7 L836.8,273.5 L833.1,273.1 L833.1,272.0 L835.3,271.4 L837.1,272.3 L838.9,272.1 L841.4,271.0 Z M944.1,271.7 L944.2,272.3 L942.0,271.1 L940.5,270.0 L939.5,269.0 L939.9,268.7 L941.2,269.4 L943.4,270.8 L944.1,271.7 Z M937.6,268.8 L937.0,269.0 L935.8,268.3 L934.7,267.1 L934.8,266.6 L936.5,267.8 L937.6,268.8 Z M801.7,267.1 L807.1,267.4 L807.7,266.2 L812.8,267.6 L813.8,269.5 L818.0,270.1 L821.4,271.8 L818.2,273.0 L815.2,271.8 L812.7,271.8 L809.8,271.6 L807.2,271.1 L804.0,270.0 L801.9,269.7 L800.8,270.0 L795.7,268.8 L795.2,267.6 L792.7,267.3 L794.6,264.5 L798.0,264.7 L800.2,265.8 L801.3,266.1 L801.7,267.1 Z M874.2,265.5 L872.8,267.5 L872.5,265.2 L873.0,264.2 L873.6,263.2 L874.2,264.0 L874.2,265.5 Z M933.0,267.2 L932.2,267.5 L931.0,266.4 L929.8,264.5 L929.2,262.3 L929.6,262.0 L929.9,262.9 L930.7,263.5 L932.1,265.4 L933.4,266.4 L933.0,267.2 Z M922.2,263.3 L920.7,263.5 L920.3,264.4 L918.8,265.1 L917.3,265.8 L915.9,265.8 L913.6,264.9 L912.0,264.1 L912.2,263.2 L914.7,263.6 L916.2,263.4 L916.7,261.9 L917.1,261.9 L917.3,263.4 L918.9,263.2 L919.7,262.2 L921.2,261.2 L920.9,259.4 L922.6,259.4 L923.2,259.8 L923.1,261.5 L922.2,263.3 Z M853.5,257.3 L852.4,258.3 L850.5,257.8 L850.0,256.5 L852.8,256.3 L853.5,257.3 Z M862.4,256.2 L863.4,258.5 L861.1,257.3 L858.8,257.0 L857.2,257.2 L855.3,257.1 L855.9,255.5 L859.4,255.4 L862.4,256.2 Z M925.4,260.4 L924.5,261.2 L924.0,259.4 L923.3,258.3 L922.1,257.3 L920.5,256.1 L918.5,255.2 L919.3,254.5 L920.8,255.3 L921.7,256.0 L922.9,256.7 L924.0,257.9 L925.1,258.9 L925.4,260.4 Z M872.6,250.5 L873.4,255.3 L876.3,257.0 L878.6,253.9 L881.8,252.1 L884.2,252.1 L886.6,253.2 L888.7,254.2 L891.7,254.8 L896.5,256.8 L901.6,258.5 L903.5,260.0 L905.1,261.5 L905.5,263.2 L910.1,265.1 L910.8,266.6 L908.2,267.0 L908.9,268.9 L911.3,270.9 L913.1,274.0 L914.7,273.9 L914.6,275.2 L916.8,275.7 L915.9,276.3 L918.9,277.5 L918.6,278.4 L916.7,278.6 L916.1,277.8 L913.7,277.5 L910.9,277.0 L908.7,275.1 L907.1,273.5 L905.7,270.9 L902.1,269.6 L899.7,270.5 L898.0,271.5 L898.4,273.6 L896.2,274.7 L894.6,274.2 L891.8,274.0 L889.3,271.6 L886.5,271.0 L885.8,271.9 L882.3,271.9 L883.4,269.5 L885.2,268.7 L884.5,265.5 L883.1,263.0 L877.7,260.5 L875.5,260.3 L871.3,257.6 L870.5,259.0 L869.4,259.2 L868.8,258.2 L868.8,256.9 L866.6,255.4 L869.6,254.4 L871.6,254.4 L871.4,253.6 L867.3,253.6 L866.2,251.9 L863.7,251.3 L862.6,249.9 L866.3,249.2 L867.7,248.2 L872.2,249.4 L872.6,250.5 Z M847.9,242.9 L845.7,245.8 L843.6,246.4 L840.9,245.8 L836.3,246.0 L833.8,246.4 L833.4,248.6 L835.9,251.3 L837.4,249.9 L842.6,248.9 L842.4,250.3 L841.2,249.8 L840.0,251.6 L837.5,252.7 L840.1,256.5 L839.6,257.5 L842.1,260.9 L842.1,262.9 L840.6,263.7 L839.5,262.7 L840.9,260.3 L838.2,261.4 L837.5,260.6 L837.8,259.5 L835.8,257.7 L836.0,254.9 L834.2,255.8 L834.4,259.2 L834.5,263.4 L832.8,263.9 L831.6,263.0 L832.4,260.3 L831.9,257.4 L830.8,257.4 L829.9,255.4 L831.1,253.4 L831.5,251.1 L832.8,246.6 L833.4,245.4 L835.8,243.2 L838.0,244.1 L841.5,244.5 L844.7,244.4 L847.4,242.2 L847.9,242.9 Z M857.5,243.8 L857.3,246.3 L855.9,246.0 L855.5,247.8 L856.6,249.4 L855.8,249.8 L854.7,247.9 L853.9,244.1 L854.4,241.8 L855.4,240.7 L855.6,242.3 L857.2,242.5 L857.5,243.8 Z M793.9,264.4 L790.9,264.4 L788.5,262.0 L785.0,259.6 L783.8,257.8 L781.7,255.4 L780.3,253.2 L778.2,249.0 L775.7,246.6 L774.9,244.0 L773.9,241.7 L771.4,239.9 L769.9,237.3 L767.8,235.7 L764.9,232.4 L764.7,230.9 L766.5,231.0 L770.8,231.6 L773.2,234.5 L775.4,236.5 L776.9,237.7 L779.6,240.9 L782.4,240.9 L784.7,243.0 L786.3,245.4 L788.4,246.8 L787.3,249.2 L788.9,250.2 L789.9,250.3 L790.4,252.4 L791.4,254.0 L793.4,254.3 L794.7,256.1 L794.0,259.8 L793.9,264.4 Z M827.4,241.7 L830.5,244.4 L827.3,244.8 L826.3,246.8 L826.4,249.5 L823.8,251.5 L823.7,254.4 L822.6,259.0 L822.2,257.9 L819.1,259.2 L818.0,257.4 L816.0,257.3 L814.6,256.3 L811.3,257.4 L810.3,255.9 L808.5,256.1 L806.2,255.8 L805.7,251.8 L804.4,251.0 L803.0,248.5 L802.6,245.9 L803.0,243.1 L804.6,241.2 L806.7,242.2 L808.8,241.6 L809.4,239.1 L810.5,238.6 L813.9,237.9 L815.9,235.6 L817.2,233.7 L818.3,232.6 L820.7,231.0 L822.8,229.0 L824.2,226.6 L825.4,226.6 L826.8,228.1 L826.9,229.4 L828.7,230.2 L831.1,231.1 L830.9,232.3 L829.0,232.4 L829.5,233.9 L827.4,234.9 L825.9,237.5 L827.9,240.3 L827.4,241.7 Z M851.0,222.2 L851.3,224.2 L851.5,225.9 L850.5,228.6 L849.5,225.6 L848.2,227.1 L849.1,229.2 L848.3,230.6 L845.1,228.9 L844.3,226.8 L845.1,225.4 L843.4,224.0 L842.5,225.2 L841.2,225.1 L839.1,226.7 L838.7,225.9 L839.8,223.4 L841.5,222.5 L843.0,221.4 L844.0,222.8 L846.1,221.9 L846.6,220.6 L848.5,220.6 L848.4,218.3 L850.6,219.7 L850.8,221.2 L851.0,222.2 Z M725.6,228.8 L723.2,229.5 L721.9,227.1 L721.4,222.9 L722.6,218.1 L724.6,219.7 L725.8,221.8 L727.2,224.9 L726.8,228.0 L725.6,228.8 Z M330.7,217.2 L328.4,217.6 L327.9,217.3 L328.7,216.5 L328.7,215.3 L330.3,214.9 L330.8,215.0 L330.7,217.2 Z M844.4,216.7 L843.4,217.7 L842.5,219.6 L841.7,220.4 L839.9,218.4 L840.5,217.6 L841.2,216.8 L841.5,215.0 L843.0,214.8 L842.6,216.8 L844.7,213.9 L844.4,216.7 Z M829.2,219.6 L825.5,222.4 L826.8,220.3 L828.8,218.5 L830.5,216.4 L832.0,213.5 L832.5,215.9 L830.6,217.5 L829.2,219.6 Z M838.6,212.0 L840.2,212.9 L842.0,212.9 L841.9,214.1 L840.7,215.4 L838.9,216.3 L838.8,214.9 L839.0,213.4 L838.6,212.0 Z M848.6,211.2 L849.4,214.5 L847.3,213.7 L847.3,214.7 L848.0,216.5 L846.7,217.2 L846.6,215.1 L845.7,214.9 L845.3,213.1 L846.9,213.4 L846.9,212.3 L845.2,210.0 L847.8,210.1 L848.6,211.2 Z M837.6,208.5 L836.8,211.0 L835.6,209.6 L834.2,207.3 L836.6,207.4 L837.6,208.5 Z M837.0,192.4 L838.7,193.3 L839.6,192.5 L839.8,193.3 L839.4,194.5 L840.3,196.6 L839.6,199.1 L837.9,200.0 L837.5,202.4 L838.1,204.8 L839.6,205.1 L840.8,204.7 L844.3,206.4 L844.0,208.0 L844.9,208.7 L844.7,210.1 L842.5,208.6 L841.5,207.1 L840.8,208.1 L839.0,206.4 L836.5,206.8 L835.1,206.2 L835.2,204.9 L836.1,204.2 L835.3,203.5 L834.9,204.6 L833.5,202.9 L833.1,201.6 L833.0,198.8 L834.1,199.7 L834.4,195.1 L835.3,192.4 L837.0,192.4 Z M317.8,193.3 L317.1,194.0 L315.0,194.0 L313.4,194.1 L313.2,192.8 L313.6,192.4 L315.9,192.4 L317.3,192.7 L317.8,193.3 Z M286.4,194.3 L285.5,194.8 L284.0,194.3 L282.4,193.3 L282.7,192.6 L283.9,192.4 L284.5,192.5 L286.4,192.7 L287.9,193.5 L288.3,194.3 L286.4,194.3 Z M298.4,188.4 L300.8,188.9 L301.1,188.4 L303.3,188.4 L305.0,189.1 L305.7,189.1 L306.2,190.1 L307.7,190.0 L307.6,190.9 L308.9,191.0 L310.2,192.1 L309.2,193.3 L307.9,192.7 L306.6,192.8 L305.7,192.7 L305.2,193.2 L304.1,193.4 L303.7,192.7 L302.8,193.1 L301.7,195.1 L301.0,194.6 L300.8,193.8 L299.0,193.3 L297.7,193.5 L296.0,193.3 L294.7,193.8 L293.2,192.9 L293.4,192.0 L296.0,192.4 L298.1,192.6 L299.1,192.0 L297.8,190.7 L297.8,189.5 L296.1,189.1 L296.7,188.3 L298.4,188.4 Z M806.5,191.9 L804.1,193.3 L801.8,192.4 L801.7,189.9 L803.1,188.5 L806.1,187.7 L807.7,187.8 L808.4,188.9 L807.1,190.2 L806.5,191.9 Z M67.9,190.7 L67.5,191.2 L66.8,190.8 L66.9,190.0 L66.5,188.9 L66.6,188.6 L67.1,188.1 L66.9,187.5 L67.1,187.2 L67.3,187.3 L68.3,187.8 L68.8,188.0 L69.3,188.4 L70.0,189.5 L69.9,189.6 L68.8,190.3 L67.9,190.7 Z M66.5,186.1 L65.5,186.3 L65.0,185.7 L64.7,185.5 L64.7,185.3 L65.0,185.0 L66.0,185.3 L66.7,185.8 L66.5,186.1 Z M64.6,184.5 L64.5,184.9 L63.0,184.8 L63.2,184.4 L64.6,184.5 Z M62.1,184.1 L61.9,184.3 L61.7,184.2 L60.8,184.1 L60.4,183.5 L60.3,183.4 L61.0,182.9 L61.3,183.1 L62.1,184.1 Z M57.4,182.2 L57.0,182.5 L56.1,181.9 L56.3,181.7 L56.7,181.4 L57.3,181.5 L57.4,182.2 Z M278.7,179.8 L279.8,180.9 L282.4,180.6 L283.4,181.3 L285.7,183.1 L287.4,184.5 L288.4,184.4 L290.0,185.0 L289.8,185.8 L291.9,186.0 L294.0,187.2 L293.6,187.9 L291.8,188.2 L289.9,188.4 L288.0,188.2 L284.0,188.4 L285.9,186.8 L284.7,186.0 L283.0,185.8 L282.0,185.0 L281.3,183.3 L279.8,183.4 L277.2,182.6 L276.3,182.0 L272.7,181.5 L271.8,181.0 L272.8,180.2 L270.1,180.1 L268.1,181.6 L266.9,181.7 L266.5,182.4 L265.1,182.7 L264.0,182.4 L265.4,181.5 L266.0,180.4 L267.3,179.8 L268.7,179.2 L270.8,178.9 L271.5,178.6 L273.9,178.8 L276.1,178.8 L278.7,179.8 Z M284.6,176.9 L283.9,177.1 L283.2,175.4 L282.2,174.5 L282.8,172.6 L283.6,172.7 L284.6,175.2 L284.6,176.9 Z M836.6,179.8 L835.4,182.2 L833.9,179.7 L833.6,177.5 L835.3,174.6 L837.5,172.4 L838.8,173.3 L838.3,175.0 L836.6,179.8 Z M283.8,168.6 L280.8,169.1 L280.6,168.0 L281.9,167.7 L283.8,167.8 L283.8,168.6 Z M286.1,168.5 L285.6,170.6 L285.1,170.3 L285.2,168.7 L283.9,167.6 L283.9,167.2 L286.1,168.5 Z M874.0,146.2 L874.3,147.2 L872.8,149.0 L871.6,148.1 L870.2,148.8 L869.5,150.5 L867.7,149.6 L867.7,148.2 L869.2,146.5 L870.8,146.8 L872.0,145.6 L874.0,146.2 Z M596.0,141.7 L594.2,143.0 L594.4,143.5 L594.5,143.8 L591.6,145.0 L590.2,144.6 L589.6,143.4 L590.9,143.3 L591.1,143.3 L591.5,142.6 L593.5,142.6 L596.0,141.7 Z M565.8,141.6 L567.4,142.6 L569.5,142.4 L571.6,142.7 L571.5,143.2 L573.0,142.8 L572.7,143.7 L568.7,143.9 L568.7,143.5 L565.3,142.9 L565.8,141.6 Z M543.1,134.2 L542.1,136.5 L542.5,137.4 L541.9,138.9 L539.8,137.8 L538.4,137.5 L534.5,136.0 L534.9,134.5 L538.2,134.7 L541.0,134.4 L543.1,134.2 Z M525.6,125.4 L527.2,127.5 L526.9,131.4 L525.6,131.2 L524.5,132.2 L523.4,131.4 L523.3,127.8 L522.7,126.1 L524.2,126.3 L525.6,125.4 Z M891.6,137.4 L890.6,139.7 L891.0,141.2 L889.6,143.3 L886.0,144.7 L881.2,144.9 L877.2,148.2 L875.3,147.1 L875.2,144.9 L870.4,145.5 L867.1,146.9 L863.8,147.0 L866.7,149.2 L864.8,154.2 L863.0,155.4 L861.7,154.3 L862.4,151.6 L860.6,150.8 L859.5,148.7 L862.1,147.8 L863.5,146.0 L866.3,144.4 L868.4,142.4 L873.9,141.5 L876.9,142.1 L879.8,136.9 L881.6,138.3 L885.7,135.4 L887.3,134.2 L889.0,130.6 L888.6,127.3 L889.7,125.4 L892.7,124.9 L894.2,129.0 L894.1,131.4 L891.6,134.3 L891.6,137.4 Z M526.6,122.6 L525.6,124.9 L524.4,124.3 L523.7,122.3 L524.3,121.2 L526.1,120.0 L526.6,122.6 Z M899.7,116.6 L901.7,117.2 L903.7,116.0 L904.3,119.3 L900.2,120.1 L897.7,123.0 L893.4,121.0 L891.8,124.3 L888.8,124.3 L888.4,121.4 L889.8,119.1 L892.7,118.9 L893.5,114.8 L894.4,112.5 L897.6,115.6 L899.7,116.6 Z M323.2,109.6 L325.2,110.0 L327.7,109.9 L326.4,111.1 L325.4,111.3 L321.8,110.1 L321.1,109.1 L322.2,108.1 L323.2,109.6 Z M328.3,102.0 L327.0,102.1 L323.4,101.2 L320.8,99.8 L321.7,99.5 L325.4,100.3 L328.2,101.5 L328.3,102.0 Z M156.9,103.8 L155.5,104.2 L151.0,102.9 L150.1,101.8 L147.6,100.8 L147.1,99.9 L144.3,99.4 L143.2,97.8 L143.5,97.1 L146.4,97.8 L148.1,98.2 L150.7,98.5 L151.6,99.5 L153.0,100.9 L155.8,102.2 L156.9,103.8 Z M344.1,97.4 L342.2,99.9 L344.0,99.0 L345.9,99.6 L344.9,100.6 L347.4,101.4 L348.7,100.7 L351.5,101.6 L350.6,103.8 L352.5,103.3 L352.9,104.8 L353.8,106.7 L352.6,109.3 L351.3,109.4 L349.5,108.8 L350.1,106.4 L349.3,106.0 L346.1,108.6 L344.5,108.5 L346.4,107.1 L343.7,106.4 L340.8,106.6 L335.4,106.5 L334.9,105.6 L336.7,104.6 L335.5,103.8 L337.8,102.0 L340.7,97.3 L342.4,95.6 L344.8,94.6 L346.1,94.7 L345.6,95.5 L344.1,97.4 Z M131.4,87.5 L134.0,87.2 L133.2,90.6 L135.6,93.0 L134.5,92.9 L132.8,91.6 L131.8,90.2 L130.4,89.3 L129.9,88.0 L130.1,87.1 L131.4,87.5 Z M899.0,97.2 L901.8,102.4 L897.7,101.4 L896.0,105.7 L898.7,108.7 L898.6,110.8 L896.5,109.0 L894.7,111.3 L894.2,108.8 L894.5,106.0 L894.2,102.8 L894.8,100.5 L894.9,96.6 L893.3,93.7 L893.6,89.6 L896.1,88.3 L895.0,86.9 L896.3,86.5 L897.0,88.5 L897.9,91.3 L897.9,94.2 L899.0,97.2 Z M481.1,92.7 L476.2,94.5 L472.3,94.0 L474.5,90.9 L473.1,87.9 L476.9,85.6 L479.0,84.2 L481.3,84.1 L484.3,85.9 L482.8,88.0 L483.2,90.1 L481.1,92.7 Z M535.2,82.8 L533.6,85.2 L530.7,83.5 L530.3,82.3 L534.4,81.3 L535.2,82.8 Z M75.0,78.4 L72.2,79.5 L70.8,78.7 L70.4,77.4 L72.9,76.3 L74.4,75.9 L76.2,76.1 L77.4,77.0 L75.0,78.4 Z M491.7,73.9 L488.7,77.1 L491.5,76.7 L494.6,76.7 L493.8,79.1 L491.3,81.7 L494.2,81.9 L496.9,85.7 L498.8,86.2 L500.5,89.6 L501.3,90.7 L504.7,91.3 L504.3,93.2 L502.9,94.1 L504.0,95.6 L501.5,97.1 L497.8,97.1 L493.1,97.9 L491.8,97.3 L490.0,98.7 L487.4,98.4 L485.4,99.5 L484.0,98.9 L488.0,95.8 L490.5,95.2 L486.2,94.7 L485.4,93.5 L488.3,92.6 L486.8,91.0 L487.3,89.1 L491.4,89.3 L491.8,87.6 L489.9,85.8 L486.5,85.2 L485.9,84.4 L486.9,83.1 L486.0,82.3 L484.5,83.7 L484.3,80.9 L482.9,79.4 L483.9,76.3 L486.1,73.9 L488.3,74.1 L491.7,73.9 Z M40.1,70.1 L38.4,70.6 L36.5,70.0 L34.9,69.2 L37.6,68.7 L39.8,69.0 L40.1,70.1 Z M279.8,63.5 L278.7,65.0 L277.5,64.8 L276.8,63.9 L276.9,63.7 L278.0,62.8 L279.1,62.9 L279.8,63.5 Z M272.5,61.8 L269.3,63.5 L267.3,63.4 L266.7,62.6 L268.8,61.2 L272.6,61.3 L272.5,61.8 Z M23.0,58.7 L24.7,59.2 L26.4,58.9 L28.7,59.7 L31.4,60.1 L31.2,60.4 L29.1,61.1 L27.0,60.4 L25.9,59.9 L23.5,60.1 L22.8,59.8 L23.0,58.7 Z M263.4,53.1 L264.0,54.4 L265.4,54.0 L267.0,54.8 L270.0,55.8 L273.2,56.7 L273.5,58.1 L275.5,57.9 L277.5,58.8 L275.0,59.8 L270.7,59.1 L269.1,57.7 L266.4,59.3 L262.4,60.8 L261.5,59.1 L257.7,59.4 L260.1,57.9 L260.5,55.6 L261.4,52.9 L263.4,53.1 Z M459.7,50.8 L459.1,52.7 L462.2,54.7 L458.6,57.0 L450.6,59.0 L448.2,59.5 L444.5,59.1 L436.8,58.2 L439.5,56.8 L433.5,55.4 L438.4,54.8 L438.3,54.0 L432.4,53.3 L434.3,51.4 L438.5,50.9 L442.8,52.9 L447.1,51.3 L450.6,52.1 L455.1,50.6 L459.7,50.8 Z M289.3,48.7 L286.1,48.9 L285.5,47.4 L286.6,45.8 L289.2,45.4 L291.4,46.2 L291.4,47.5 L291.1,47.9 L289.3,48.7 Z M0.0,43.4 L6.8,45.6 L14.1,48.6 L13.9,50.4 L15.7,51.1 L15.1,49.0 L22.6,49.4 L28.1,52.2 L25.3,53.5 L20.8,53.8 L20.7,56.7 L19.6,57.3 L17.0,57.2 L14.9,56.2 L11.2,55.3 L10.5,54.0 L7.7,53.5 L4.6,53.9 L3.1,52.9 L3.7,51.8 L0.3,52.5 L1.6,53.9 L0.0,55.1 L1000.0,55.2 L996.4,56.5 L992.8,56.2 L995.3,57.8 L997.0,60.2 L998.2,61.0 L998.6,62.3 L997.9,63.0 L992.7,62.4 L984.9,64.6 L982.4,65.0 L978.2,67.0 L974.2,68.9 L973.1,70.2 L969.2,68.2 L961.9,70.5 L960.7,69.4 L958.0,70.6 L954.3,70.2 L953.4,72.2 L950.0,75.0 L950.1,76.2 L953.3,76.9 L952.9,81.2 L950.4,81.3 L949.2,83.8 L950.3,85.1 L945.5,86.6 L944.5,89.9 L940.4,90.7 L939.5,93.7 L935.5,96.4 L934.5,94.4 L933.3,90.1 L931.8,83.5 L933.1,79.4 L935.4,77.6 L935.6,76.3 L939.9,75.6 L944.9,71.9 L949.6,68.8 L954.6,66.5 L956.9,62.3 L953.5,62.6 L951.8,65.0 L944.8,68.2 L942.5,64.6 L935.3,65.6 L928.4,70.6 L930.7,72.4 L924.5,73.1 L920.2,73.5 L920.4,71.3 L916.1,70.9 L912.6,72.3 L904.1,71.8 L895.0,72.7 L886.0,78.5 L875.3,85.4 L879.7,85.8 L881.1,87.6 L883.8,88.3 L885.6,86.8 L888.6,87.0 L892.6,90.3 L892.7,92.8 L890.5,95.7 L890.3,99.3 L889.1,104.0 L884.9,108.3 L883.9,110.3 L880.2,113.7 L876.4,117.2 L874.6,118.9 L870.9,120.6 L869.2,120.7 L867.4,119.2 L863.7,121.4 L863.3,122.4 L862.2,122.2 L861.0,123.2 L860.2,124.2 L860.3,126.3 L858.9,127.0 L858.4,127.5 L857.3,128.4 L855.5,128.9 L854.3,129.7 L854.2,130.9 L853.8,131.3 L855.0,131.7 L856.5,133.0 L858.9,136.5 L859.6,138.4 L859.6,141.8 L858.6,143.5 L856.1,144.0 L853.8,145.3 L851.3,145.5 L851.0,143.9 L851.6,141.7 L850.3,138.6 L852.4,138.1 L850.5,135.6 L849.1,135.0 L848.8,135.6 L848.0,135.8 L847.9,135.3 L847.2,135.0 L846.4,134.5 L847.2,133.2 L847.8,132.9 L847.6,132.3 L848.3,130.7 L848.1,130.3 L846.5,129.9 L845.2,129.1 L841.3,130.0 L839.3,131.4 L836.3,132.2 L837.7,130.8 L837.2,129.7 L839.4,127.7 L837.9,126.1 L835.5,127.2 L832.3,129.2 L830.6,131.1 L827.9,131.3 L826.5,132.7 L827.9,134.7 L830.2,135.1 L830.3,136.5 L832.5,137.3 L835.6,135.2 L838.1,136.4 L839.9,136.5 L840.3,138.0 L836.4,138.8 L835.1,140.4 L832.4,141.9 L831.0,144.0 L834.0,145.6 L835.1,148.5 L836.7,151.2 L838.6,153.5 L838.6,155.7 L836.8,156.5 L837.5,158.1 L839.1,159.0 L838.7,161.4 L838.0,163.7 L836.5,164.0 L834.4,167.2 L832.2,171.1 L829.6,174.6 L825.8,177.3 L821.9,179.8 L818.8,180.1 L817.1,181.4 L816.1,180.5 L814.6,182.0 L810.7,183.4 L807.7,183.9 L806.8,187.0 L805.2,187.2 L804.5,185.0 L805.2,183.9 L801.4,182.9 L800.1,183.4 L796.4,186.0 L794.1,188.7 L793.5,190.8 L795.6,193.9 L798.2,197.8 L800.7,199.6 L802.4,202.0 L803.7,207.4 L803.3,212.6 L801.0,214.6 L797.8,216.5 L795.6,218.9 L792.1,221.7 L791.1,219.8 L791.9,217.8 L789.8,216.1 L787.5,215.7 L786.4,214.2 L785.0,211.1 L782.5,209.7 L780.1,209.8 L780.5,207.5 L778.0,207.5 L777.8,210.7 L776.3,215.1 L775.4,217.7 L775.6,219.8 L777.4,219.9 L778.6,222.6 L779.1,225.2 L780.6,226.8 L782.3,227.2 L783.7,228.7 L784.4,229.0 L786.0,230.8 L787.2,232.8 L787.3,234.7 L787.0,236.1 L787.3,237.1 L787.5,238.9 L788.5,239.7 L789.6,242.3 L789.5,243.3 L787.6,243.5 L784.9,241.3 L781.6,238.9 L781.3,237.4 L779.7,235.5 L779.3,233.0 L778.3,231.4 L778.6,229.3 L778.0,228.0 L776.9,226.9 L776.4,225.4 L775.0,223.7 L773.6,222.3 L773.2,224.1 L772.6,222.4 L772.9,220.6 L773.8,217.8 L773.5,215.6 L774.3,213.3 L773.4,211.6 L773.6,208.3 L772.5,206.8 L771.6,203.3 L771.1,199.5 L769.9,197.1 L768.1,198.6 L764.9,200.7 L763.4,200.4 L761.6,199.7 L762.6,196.1 L762.0,193.3 L759.8,189.9 L760.2,188.8 L758.5,188.4 L756.6,186.0 L755.8,184.5 L755.6,183.0 L755.1,181.6 L753.9,179.8 L751.4,179.7 L751.6,180.9 L750.8,182.6 L749.6,182.0 L749.2,182.5 L748.4,182.2 L747.3,181.9 L746.9,183.0 L745.0,183.0 L741.6,183.6 L741.8,185.8 L740.3,187.6 L736.3,189.6 L733.2,193.0 L731.1,194.9 L728.3,196.8 L728.3,198.2 L726.9,198.9 L724.4,200.0 L723.1,200.1 L722.3,202.4 L722.9,206.2 L723.0,208.7 L721.8,211.5 L721.8,216.5 L720.4,216.6 L719.1,218.9 L720.0,219.9 L717.4,220.7 L716.5,222.7 L715.4,223.6 L712.8,220.8 L711.5,216.7 L710.4,213.7 L709.4,212.3 L708.0,209.5 L707.3,205.8 L706.8,203.9 L704.3,199.9 L703.1,194.1 L702.3,190.4 L702.3,186.8 L701.7,184.0 L697.7,185.8 L695.7,185.4 L692.1,181.8 L693.5,180.8 L692.6,179.6 L689.4,177.1 L687.3,176.4 L686.5,174.2 L684.4,172.0 L679.2,172.5 L674.7,172.6 L670.8,173.0 L665.6,172.1 L662.6,171.4 L659.4,171.1 L658.3,167.4 L656.9,166.9 L654.8,167.4 L652.0,168.9 L648.6,167.9 L645.8,165.6 L643.1,164.8 L641.3,162.0 L639.2,158.0 L637.7,158.5 L635.9,157.5 L634.9,158.7 L633.3,158.5 L633.8,159.9 L633.6,160.5 L634.5,162.8 L635.6,165.3 L636.9,166.0 L637.4,167.0 L639.3,168.3 L639.5,169.5 L639.2,170.5 L639.6,171.5 L640.4,172.3 L640.7,173.2 L641.1,174.0 L641.0,171.8 L641.7,170.3 L642.5,170.0 L643.3,170.9 L643.4,172.6 L642.7,174.3 L643.3,175.5 L643.8,175.3 L643.9,176.1 L646.0,175.7 L648.3,175.8 L650.0,175.8 L651.9,173.8 L654.0,171.9 L655.8,170.1 L656.6,169.1 L656.9,169.4 L656.6,170.6 L656.3,171.1 L656.7,173.5 L657.9,175.5 L659.5,176.6 L661.5,176.9 L663.1,177.5 L664.4,179.2 L665.1,180.2 L666.1,180.5 L666.1,181.2 L665.1,183.0 L664.7,183.8 L663.5,184.7 L662.5,186.7 L661.2,186.6 L660.6,187.3 L660.2,188.8 L660.5,190.8 L660.3,191.1 L659.0,191.1 L657.2,192.2 L657.0,193.7 L656.3,194.3 L654.6,194.3 L653.5,195.0 L653.5,196.2 L652.2,197.0 L650.7,196.7 L648.8,197.7 L647.5,197.9 L645.5,198.7 L645.0,200.0 L644.9,201.0 L642.1,202.3 L637.7,203.6 L635.2,205.7 L634.0,205.9 L633.2,205.7 L631.5,206.9 L629.8,207.5 L627.4,207.7 L626.7,207.8 L626.1,208.6 L625.4,208.8 L625.0,209.6 L623.6,209.5 L622.7,209.9 L620.8,209.8 L620.1,208.0 L620.1,206.4 L619.7,205.6 L619.1,203.4 L618.3,202.2 L618.9,202.0 L618.6,200.7 L619.0,200.1 L618.8,198.8 L618.5,197.5 L617.6,196.7 L617.4,195.5 L616.0,194.4 L614.5,191.9 L613.7,189.5 L611.8,187.5 L610.6,187.0 L608.7,184.2 L608.4,182.1 L608.5,180.4 L606.9,177.1 L605.6,176.0 L604.1,175.4 L603.2,173.7 L603.4,173.0 L602.6,171.5 L601.8,170.8 L600.7,168.6 L599.0,166.2 L597.6,164.2 L596.2,164.2 L596.6,162.6 L596.8,161.6 L597.1,160.4 L597.0,159.9 L596.2,161.1 L595.6,163.4 L594.9,164.9 L594.2,165.4 L593.3,164.5 L592.0,163.2 L590.1,158.9 L589.8,159.2 L590.9,162.3 L592.6,165.3 L594.7,169.9 L595.8,171.5 L596.7,173.1 L599.1,176.4 L598.6,176.9 L598.7,178.9 L601.9,181.5 L602.4,182.1 L603.3,185.0 L602.7,185.5 L603.1,188.6 L604.1,192.1 L605.2,192.8 L606.7,193.9 L608.3,197.3 L609.1,200.1 L610.6,201.5 L614.4,204.3 L615.9,206.0 L617.4,207.7 L618.3,208.7 L619.7,209.6 L620.3,210.5 L620.2,211.7 L618.7,212.4 L619.8,213.2 L620.8,213.8 L621.3,215.0 L622.5,216.2 L623.9,216.3 L626.5,215.5 L629.6,215.1 L632.0,214.2 L633.4,214.0 L634.4,213.5 L636.0,213.4 L636.9,213.3 L638.1,212.9 L639.6,212.6 L640.9,211.6 L642.0,211.6 L642.0,212.4 L641.8,214.1 L641.8,215.7 L641.2,216.7 L640.4,219.9 L639.1,223.2 L637.4,227.0 L635.0,231.3 L632.6,234.6 L629.3,238.7 L626.6,241.1 L622.4,244.0 L619.8,246.2 L616.8,249.8 L616.1,251.4 L615.5,252.1 L613.6,253.3 L612.9,254.5 L611.8,254.7 L611.4,256.8 L610.6,258.0 L610.0,259.9 L608.9,260.9 L607.6,264.6 L607.8,266.2 L609.6,267.3 L609.6,268.1 L608.9,269.9 L609.0,270.8 L608.9,272.2 L609.8,274.0 L611.0,276.9 L612.0,277.6 L612.4,278.9 L612.3,281.8 L612.7,284.4 L612.8,289.1 L613.3,290.5 L612.4,292.6 L611.4,294.7 L609.6,296.5 L607.0,297.6 L603.9,299.1 L600.8,302.2 L599.7,302.8 L597.8,304.9 L596.6,305.5 L596.4,307.6 L597.7,309.9 L598.3,311.6 L598.3,312.5 L598.8,312.4 L598.7,315.3 L598.3,316.6 L598.9,317.1 L598.5,318.4 L597.3,319.4 L595.0,320.4 L591.7,322.0 L590.5,323.1 L590.7,324.3 L591.4,324.5 L591.2,326.1 L590.5,328.2 L590.2,330.7 L589.5,332.0 L587.6,333.5 L587.0,334.0 L585.8,335.5 L585.1,337.0 L583.5,339.1 L580.3,342.1 L578.4,343.9 L576.3,345.3 L573.4,346.4 L572.0,346.6 L571.6,347.4 L569.9,346.9 L568.5,347.5 L565.5,346.9 L563.9,347.3 L562.7,347.1 L559.8,348.3 L557.5,348.8 L555.8,349.9 L554.5,350.0 L553.3,348.9 L552.4,348.9 L551.2,347.5 L551.0,347.9 L550.7,347.1 L550.7,345.4 L549.8,343.4 L550.7,342.9 L550.6,340.6 L548.8,337.9 L547.4,335.4 L547.4,335.4 L545.4,331.5 L543.3,329.3 L542.3,327.1 L541.6,324.3 L541.0,322.1 L540.0,317.6 L540.0,314.0 L539.6,312.4 L538.5,311.2 L537.1,308.8 L535.6,305.2 L535.0,303.4 L532.8,300.5 L532.6,298.2 L532.3,296.4 L532.7,293.8 L533.7,291.1 L533.8,289.8 L534.7,287.1 L535.4,285.9 L537.0,284.0 L537.9,282.7 L538.2,280.5 L538.0,278.8 L537.2,277.7 L536.4,276.0 L535.8,274.2 L535.9,273.6 L536.8,272.4 L535.9,269.5 L535.4,267.6 L534.0,265.7 L534.2,265.1 L533.8,264.2 L533.1,262.0 L530.8,258.9 L528.0,255.9 L526.1,253.4 L524.4,250.4 L524.5,249.4 L525.1,248.5 L525.8,246.3 L526.4,244.1 L525.8,243.7 L526.8,240.4 L527.2,238.0 L526.1,236.1 L524.9,235.6 L524.3,234.2 L523.6,233.8 L523.6,233.0 L520.7,234.1 L519.7,233.9 L518.6,234.6 L516.4,234.5 L514.9,232.7 L514.0,230.5 L512.0,228.6 L509.9,228.6 L507.5,228.6 L505.2,229.0 L502.9,229.6 L498.6,231.3 L497.0,232.3 L494.5,233.2 L492.1,232.3 L490.8,232.4 L488.9,231.8 L487.1,231.8 L483.8,232.3 L481.9,233.2 L479.1,234.3 L478.6,234.2 L477.8,234.2 L475.0,232.8 L472.5,230.6 L470.1,229.0 L468.2,227.1 L467.5,226.8 L465.5,225.6 L464.0,224.1 L463.5,223.0 L463.2,220.8 L462.0,219.1 L460.9,217.9 L460.2,217.5 L459.5,216.9 L459.2,215.6 L458.8,215.0 L458.0,214.5 L456.5,213.2 L455.3,213.1 L454.7,212.2 L454.7,211.8 L453.9,211.1 L453.7,210.5 L453.2,208.2 L453.6,206.9 L452.4,204.6 L451.0,203.6 L452.3,203.0 L453.6,201.0 L454.3,199.4 L454.0,197.8 L454.8,196.4 L455.1,193.6 L454.8,190.7 L454.5,189.2 L454.8,187.7 L454.1,186.3 L452.6,185.1 L452.7,183.8 L452.9,182.4 L453.9,181.6 L454.8,180.1 L454.6,179.1 L455.6,177.0 L457.2,175.1 L458.1,174.7 L458.8,172.9 L458.9,171.4 L459.9,169.5 L461.7,168.5 L463.5,165.4 L464.9,164.3 L467.5,163.9 L469.7,161.9 L471.1,161.1 L473.4,158.7 L472.7,155.0 L473.8,152.5 L474.2,150.9 L476.0,148.9 L478.7,147.6 L480.8,146.3 L482.7,143.3 L483.5,141.5 L485.6,141.5 L487.2,142.7 L489.9,142.5 L492.8,143.2 L494.0,143.2 L496.6,141.6 L499.6,141.1 L501.4,139.9 L504.1,139.0 L508.8,138.4 L513.4,138.2 L514.8,138.6 L517.4,137.5 L520.4,137.4 L521.5,138.1 L523.4,138.0 L526.4,136.8 L528.4,137.1 L528.3,138.6 L530.6,137.5 L530.8,138.1 L529.4,139.5 L529.4,140.9 L530.4,141.6 L530.0,144.2 L528.2,145.7 L528.7,147.3 L530.2,147.3 L530.9,148.7 L531.9,149.2 L535.2,150.2 L536.3,150.0 L538.7,150.5 L542.3,151.8 L543.6,154.4 L546.1,155.0 L550.1,156.2 L553.0,157.7 L554.4,156.9 L555.7,155.6 L555.1,153.3 L555.9,151.9 L557.9,150.5 L559.8,150.1 L563.6,150.7 L564.5,152.0 L565.6,152.0 L566.5,152.5 L569.2,152.9 L569.9,153.8 L573.6,153.8 L576.3,154.6 L579.0,155.4 L580.3,155.9 L582.5,155.0 L583.6,154.1 L586.0,153.9 L588.0,154.3 L588.8,155.7 L589.4,154.8 L591.6,155.5 L593.8,155.6 L595.2,154.9 L596.0,153.9 L595.8,153.7 L596.5,152.4 L597.1,150.1 L597.5,149.4 L597.6,149.3 L598.6,146.9 L599.9,144.9 L600.0,144.8 L599.7,142.5 L600.4,141.3 L599.4,139.9 L600.4,138.8 L598.8,139.1 L596.4,138.4 L594.5,140.1 L590.3,140.4 L588.1,138.8 L585.1,138.7 L584.4,140.0 L582.5,140.3 L579.8,138.8 L576.8,138.8 L575.1,135.9 L573.1,134.2 L574.5,131.9 L572.7,130.5 L575.8,127.7 L580.1,127.6 L581.2,125.3 L586.5,125.7 L589.9,123.8 L593.1,123.0 L597.7,122.9 L602.5,125.0 L606.5,126.1 L609.8,125.7 L612.1,125.9 L615.4,124.4 L615.8,123.1 L615.1,121.1 L613.5,120.0 L612.0,119.7 L611.0,118.8 L607.4,116.3 L604.3,115.2 L601.9,113.4 L603.9,113.0 L606.2,110.5 L604.6,109.3 L608.7,108.1 L608.7,107.5 L606.2,108.0 L604.0,108.2 L602.1,109.1 L599.5,109.3 L597.1,110.4 L597.3,112.2 L598.6,113.0 L601.5,112.8 L600.9,113.8 L597.9,114.3 L594.1,116.1 L592.6,115.4 L593.2,114.1 L590.1,113.2 L590.6,112.6 L593.3,111.6 L592.5,111.0 L588.2,110.2 L588.0,109.1 L585.4,109.5 L584.4,111.1 L582.2,113.3 L582.3,114.1 L580.9,114.7 L580.1,114.4 L579.3,118.0 L577.9,119.2 L576.9,121.3 L577.8,123.0 L578.1,124.1 L580.5,125.1 L580.0,125.8 L576.7,126.0 L575.5,126.9 L573.2,128.5 L572.3,127.1 L572.4,126.5 L570.7,126.4 L569.2,126.1 L565.9,126.9 L567.8,128.6 L566.4,129.0 L564.8,129.0 L563.4,127.5 L562.9,128.2 L563.5,129.9 L564.9,131.3 L563.8,132.0 L565.4,133.3 L566.7,134.2 L566.8,135.9 L564.2,135.1 L565.0,136.6 L563.3,136.9 L564.3,139.5 L562.5,139.5 L560.2,138.3 L559.2,135.9 L558.7,133.9 L557.6,132.6 L556.2,130.9 L556.0,130.0 L555.5,129.8 L555.4,129.2 L553.9,128.2 L553.7,126.8 L553.9,124.8 L554.3,123.9 L553.8,123.4 L553.2,123.2 L552.4,122.2 L551.2,121.6 L548.6,120.5 L547.0,119.5 L544.5,118.6 L542.2,116.4 L542.7,116.2 L541.4,114.9 L541.4,113.9 L539.6,113.5 L538.8,114.7 L537.9,113.8 L538.0,112.7 L538.1,112.7 L538.7,112.4 L536.5,112.0 L534.2,113.0 L534.4,114.5 L534.1,115.3 L535.0,116.8 L537.6,118.3 L539.0,120.8 L542.1,123.2 L544.2,123.1 L544.9,123.8 L544.1,124.4 L546.6,125.4 L548.7,126.3 L551.0,127.9 L551.3,128.4 L550.8,129.5 L549.3,128.1 L546.9,127.6 L545.7,129.5 L547.7,130.6 L547.4,132.2 L546.2,132.4 L544.7,134.9 L543.6,135.1 L543.6,134.2 L544.1,132.6 L544.7,132.0 L543.7,130.3 L542.8,128.8 L541.7,128.4 L540.8,127.1 L539.1,126.6 L537.9,125.4 L535.8,125.2 L533.6,123.9 L531.1,122.0 L529.2,120.3 L528.3,117.4 L527.0,117.0 L524.7,116.0 L523.4,116.4 L521.8,117.8 L520.7,118.0 L518.1,119.7 L512.7,118.9 L508.6,119.9 L508.3,121.6 L508.4,123.3 L505.8,125.3 L502.3,125.9 L502.0,126.9 L500.3,128.6 L499.2,131.0 L500.3,132.7 L498.7,134.0 L498.1,135.9 L496.0,136.5 L494.0,138.8 L490.5,138.8 L487.9,138.7 L486.1,139.8 L485.1,140.9 L483.7,140.7 L482.7,139.7 L481.9,138.0 L479.3,137.5 L478.2,138.3 L476.7,137.9 L475.3,138.2 L475.7,135.9 L475.4,134.1 L474.2,133.8 L473.5,132.7 L473.8,130.7 L474.9,129.7 L475.1,128.5 L475.6,126.7 L475.6,125.4 L475.0,124.4 L474.9,123.4 L475.0,121.3 L473.9,120.0 L477.8,117.9 L481.2,118.4 L485.0,118.4 L487.9,118.9 L490.2,118.7 L494.7,118.8 L496.2,117.1 L496.7,111.2 L493.8,108.1 L491.8,106.6 L487.5,105.4 L487.2,103.3 L490.8,102.6 L495.5,103.4 L494.6,100.1 L497.3,101.3 L503.7,99.0 L504.6,96.6 L507.0,96.0 L509.2,95.4 L510.6,94.6 L513.1,90.3 L516.9,89.0 L519.2,89.1 L519.7,88.5 L522.0,88.3 L522.6,89.0 L524.4,87.5 L523.8,86.4 L523.7,84.7 L522.6,83.1 L522.5,80.1 L522.9,79.3 L523.7,78.4 L526.2,78.2 L527.2,77.4 L529.4,76.6 L529.3,78.1 L528.5,79.0 L528.8,79.9 L530.3,80.3 L529.6,81.4 L528.8,81.1 L526.8,83.2 L527.6,84.7 L527.6,85.8 L530.4,86.5 L530.4,87.6 L533.2,87.0 L534.8,86.2 L537.9,87.4 L539.2,88.3 L541.1,87.4 L545.5,86.1 L549.0,85.1 L551.7,85.6 L551.9,86.3 L554.6,86.3 L555.2,85.0 L559.1,84.1 L558.5,81.6 L558.6,79.4 L559.9,77.5 L562.6,76.5 L564.8,78.7 L567.0,78.6 L567.5,76.4 L567.9,74.6 L566.8,75.0 L565.1,74.0 L564.8,72.3 L568.3,71.4 L571.8,71.0 L574.9,71.5 L577.7,71.4 L580.9,69.8 L578.0,68.4 L572.9,68.6 L568.0,69.7 L563.5,70.3 L561.9,68.7 L559.2,67.7 L559.8,64.8 L558.5,62.1 L559.8,60.4 L562.3,58.6 L568.7,55.4 L570.5,54.8 L570.3,53.5 L566.4,52.1 L561.6,52.9 L558.9,55.0 L559.4,56.8 L554.9,59.2 L549.6,61.7 L547.6,65.9 L549.5,68.0 L552.2,69.6 L549.6,72.9 L546.7,73.6 L545.7,78.6 L544.1,81.4 L540.7,81.1 L539.2,83.4 L536.0,83.6 L535.1,80.8 L532.7,77.4 L530.6,73.2 L528.8,71.4 L523.3,74.8 L519.6,75.5 L515.7,74.0 L514.7,70.8 L513.9,64.0 L516.4,62.1 L523.8,59.6 L529.2,56.6 L534.3,52.5 L541.0,46.8 L545.7,44.6 L553.3,40.9 L559.4,39.6 L564.0,39.7 L568.2,37.3 L573.2,37.4 L578.2,36.8 L586.9,39.0 L583.3,39.8 L586.4,41.6 L589.3,40.6 L593.8,42.4 L601.4,43.1 L611.9,46.4 L614.1,47.8 L614.2,49.8 L611.2,51.3 L606.6,52.1 L594.2,49.9 L592.2,50.3 L596.7,52.4 L597.1,56.8 L600.6,57.7 L602.8,58.5 L603.2,57.0 L601.4,55.7 L603.3,54.7 L610.0,56.5 L612.3,55.8 L610.5,53.6 L616.9,50.7 L619.5,50.9 L622.1,51.9 L623.7,49.9 L621.4,48.1 L622.7,46.4 L620.7,44.5 L628.5,45.5 L630.1,47.1 L626.5,47.5 L626.6,49.1 L628.7,50.2 L633.0,49.5 L633.7,47.6 L639.5,46.2 L649.2,43.7 L651.3,43.8 L648.6,45.6 L652.0,45.9 L654.0,44.9 L659.2,44.8 L663.3,43.6 L666.5,45.4 L669.7,43.4 L666.7,41.7 L668.2,40.8 L676.4,41.6 L680.2,42.6 L690.3,45.9 L692.2,44.4 L689.3,42.8 L689.3,42.2 L685.9,41.9 L686.8,40.5 L685.3,38.2 L685.3,37.3 L690.4,34.6 L692.2,31.9 L694.3,31.3 L701.6,32.1 L702.2,33.8 L699.6,36.1 L701.3,37.1 L702.2,39.2 L701.6,43.2 L704.6,45.0 L703.4,47.0 L698.0,51.2 L701.2,51.6 L702.3,50.6 L705.3,49.8 L706.1,48.3 L708.5,46.9 L706.9,45.2 L708.2,43.3 L705.1,43.1 L704.4,41.4 L706.7,38.4 L703.1,36.0 L708.0,34.0 L707.4,31.9 L708.8,31.9 L710.2,33.5 L709.1,36.4 L712.1,36.9 L710.8,34.8 L715.5,33.6 L721.3,33.5 L726.4,35.1 L723.9,32.7 L723.6,29.5 L728.5,28.9 L735.2,29.1 L741.2,28.7 L738.9,27.1 L742.1,25.2 L745.3,25.1 L750.7,23.7 L758.1,23.3 L759.0,22.4 L766.3,22.2 L768.5,22.8 L774.8,21.3 L779.9,21.3 L780.7,20.0 L783.3,18.8 L789.9,17.6 L794.6,18.5 L790.8,19.3 L797.1,19.7 L797.9,21.2 L800.4,20.5 L808.5,20.5 L814.8,21.9 L817.0,23.0 L816.3,24.6 L813.3,25.4 L806.0,27.1 L803.9,28.0 L807.3,28.4 L811.4,29.1 L813.9,28.6 L815.4,30.5 L816.6,29.7 L821.0,29.2 L829.9,29.7 L830.6,31.1 L842.2,31.5 L842.4,29.3 L848.3,29.8 L852.7,29.8 L857.2,31.3 L858.5,33.2 L856.8,34.5 L860.3,36.8 L864.7,38.0 L867.4,34.9 L871.8,36.2 L876.6,35.4 L881.9,36.3 L884.0,35.5 L888.5,35.9 L886.5,33.2 L890.2,31.9 L915.3,33.8 L917.6,35.6 L924.9,37.8 L936.1,37.3 L941.7,37.8 L944.0,39.0 L943.6,41.1 L947.1,42.0 L950.8,41.4 L955.7,41.3 L960.9,41.9 L966.2,41.5 L971.0,44.2 L974.5,43.2 L972.2,41.3 L973.5,40.0 L982.3,40.9 L988.1,40.7 L996.1,42.1 L0.0,43.4 Z M636.4,125.1 L637.8,127.2 L639.1,127.4 L640.0,128.2 L637.7,128.4 L637.2,130.7 L636.7,131.7 L635.7,132.4 L635.8,133.9 L636.7,136.1 L639.3,136.7 L641.2,138.2 L645.2,138.7 L649.5,137.9 L649.8,137.2 L649.3,135.1 L649.7,132.0 L647.5,131.0 L648.2,129.0 L646.4,128.8 L647.0,126.3 L649.6,127.1 L652.0,126.1 L650.0,124.4 L649.2,122.7 L647.0,123.4 L646.7,125.6 L645.8,123.7 L645.7,122.9 L646.4,121.7 L645.8,120.7 L642.6,119.7 L641.4,117.0 L639.8,116.3 L639.7,115.3 L642.4,115.6 L642.5,113.4 L644.9,113.0 L647.3,113.4 L647.8,110.5 L647.3,108.7 L644.6,108.8 L642.2,108.1 L639.0,109.4 L636.4,110.0 L635.1,111.8 L632.4,112.3 L629.7,115.3 L632.2,118.1 L631.9,120.1 L635.0,123.6 L636.4,125.1 Z M234.3,42.9 L232.6,44.0 L228.8,43.1 L226.6,43.4 L222.8,42.1 L225.2,41.2 L227.2,39.9 L230.1,40.7 L231.8,41.3 L232.6,41.8 L234.3,42.9 Z M0.0,35.8 L1000.0,37.9 L996.9,38.0 L996.5,37.1 L0.0,35.8 Z M0.0,35.8 L0.4,35.7 L2.7,35.7 L6.7,36.6 L6.5,37.0 L3.6,37.7 L0.0,37.9 L0.0,35.8 Z M248.5,41.8 L248.5,44.8 L252.2,42.5 L255.5,44.4 L254.7,46.6 L257.4,48.6 L260.3,46.5 L262.3,43.9 L262.4,40.7 L266.4,40.9 L270.5,41.3 L274.2,42.8 L274.4,44.3 L272.3,45.8 L274.3,47.4 L273.9,48.8 L268.5,50.9 L264.6,51.4 L261.8,50.5 L260.9,52.0 L258.2,54.5 L257.4,55.7 L254.2,57.7 L250.2,57.9 L248.0,59.2 L247.9,61.1 L244.6,61.5 L241.2,63.9 L238.2,67.2 L237.1,69.5 L237.0,73.0 L241.1,73.5 L242.3,76.2 L243.6,78.5 L247.5,77.9 L252.7,79.2 L255.4,80.3 L257.4,81.7 L260.9,82.5 L263.9,83.7 L268.4,83.9 L271.5,84.2 L271.0,86.7 L271.9,89.7 L273.9,93.0 L278.0,95.8 L280.2,94.9 L281.7,91.8 L280.2,87.2 L278.3,85.6 L282.7,84.2 L285.8,82.1 L287.4,80.1 L287.2,78.1 L285.3,75.6 L281.9,73.4 L285.2,70.3 L284.0,67.6 L283.0,63.0 L285.0,62.3 L289.7,63.1 L292.6,63.4 L294.9,62.6 L297.5,63.6 L300.9,65.3 L301.7,66.5 L306.7,66.7 L306.6,69.2 L307.5,72.9 L310.1,73.4 L312.1,75.1 L316.1,73.5 L318.8,70.2 L320.6,68.9 L322.8,71.5 L326.4,75.3 L329.5,78.8 L328.3,80.7 L332.0,82.3 L334.5,84.0 L339.0,84.8 L340.7,85.7 L341.8,88.2 L344.0,88.6 L345.1,89.7 L345.3,93.1 L343.3,94.2 L341.3,95.2 L336.7,96.2 L333.2,98.7 L328.5,99.2 L322.6,98.5 L318.4,98.5 L315.6,98.7 L313.2,100.8 L309.7,102.1 L305.7,106.1 L302.5,108.8 L304.8,108.3 L309.3,104.4 L315.1,102.0 L319.3,101.7 L321.7,103.1 L319.1,105.1 L320.0,108.3 L320.9,110.5 L324.5,112.0 L329.1,111.6 L331.9,108.2 L332.1,110.4 L333.9,111.4 L330.4,113.4 L324.3,115.1 L321.5,116.3 L318.4,118.5 L316.3,118.2 L316.2,115.7 L321.0,113.3 L316.6,113.4 L313.5,113.8 L314.0,114.7 L311.0,116.2 L308.2,117.2 L305.2,118.1 L303.6,120.0 L303.3,120.5 L303.3,122.0 L304.2,123.6 L305.3,123.7 L305.0,122.6 L305.9,123.3 L305.7,124.1 L303.8,124.6 L302.4,124.5 L300.4,125.0 L299.2,125.2 L297.6,125.3 L295.3,126.2 L299.3,125.6 L300.2,126.2 L296.3,127.1 L294.5,127.1 L294.6,126.7 L293.7,127.5 L294.6,127.7 L294.0,129.8 L291.9,132.1 L291.7,131.3 L291.1,131.2 L290.2,130.4 L290.8,132.0 L291.4,132.5 L291.5,133.6 L290.6,134.8 L289.1,137.2 L288.8,137.0 L289.7,135.0 L288.2,133.9 L287.9,131.4 L287.4,132.7 L288.0,134.6 L286.2,134.2 L288.1,135.1 L288.2,137.9 L289.0,138.1 L289.3,139.1 L289.6,142.1 L287.9,144.3 L285.0,145.1 L283.2,146.9 L281.8,147.1 L280.4,148.2 L280.0,149.1 L276.9,151.1 L275.4,152.5 L274.1,154.2 L273.6,156.3 L274.1,158.4 L275.1,160.9 L276.3,163.0 L276.3,164.3 L277.6,167.7 L277.5,169.7 L277.4,170.8 L276.7,172.6 L275.9,173.0 L274.5,172.7 L274.1,171.4 L273.0,170.7 L271.6,168.1 L270.3,165.9 L269.8,164.7 L270.4,162.8 L269.6,161.1 L267.5,158.7 L266.4,158.2 L263.6,159.6 L263.1,159.4 L261.7,158.0 L260.0,157.3 L256.9,157.7 L254.4,157.3 L252.3,157.5 L251.1,158.0 L251.6,158.8 L251.6,160.0 L252.2,160.6 L251.6,161.0 L250.6,160.5 L249.6,161.1 L247.6,161.0 L245.5,159.4 L243.1,159.8 L241.0,159.1 L239.3,159.3 L237.0,160.0 L234.4,162.2 L231.7,163.5 L230.2,164.9 L229.5,166.2 L229.5,168.3 L229.6,169.7 L230.2,170.7 L230.2,170.7 L230.2,170.7 L229.1,173.3 L228.6,175.4 L228.4,179.4 L228.1,180.8 L228.6,182.4 L229.5,183.8 L230.0,186.1 L231.9,188.3 L232.5,190.0 L233.6,191.5 L236.6,192.3 L237.7,193.5 L240.1,192.7 L242.3,192.4 L244.3,191.8 L246.1,191.3 L247.9,190.1 L248.5,188.4 L248.7,185.9 L249.2,185.1 L251.1,184.3 L254.0,183.6 L256.5,183.7 L258.2,183.5 L258.9,184.1 L258.8,185.5 L257.3,187.3 L256.6,189.1 L257.1,189.6 L256.7,190.9 L256.0,193.2 L255.3,192.4 L254.7,192.4 L254.7,192.9 L255.3,192.9 L255.2,193.7 L254.8,195.0 L255.0,195.4 L254.7,196.5 L254.9,196.8 L254.6,198.3 L254.0,199.0 L253.5,199.1 L253.0,200.2 L253.9,200.7 L254.1,200.3 L254.9,200.6 L255.2,200.8 L255.8,200.2 L256.6,200.2 L256.9,200.4 L257.3,200.3 L258.6,200.6 L259.9,200.5 L260.8,200.1 L261.1,199.8 L262.0,200.0 L262.7,200.2 L263.4,200.1 L263.9,199.8 L265.2,200.3 L265.6,200.3 L266.5,200.9 L267.3,201.5 L268.3,202.0 L269.0,202.8 L268.8,203.1 L268.7,203.7 L268.9,204.8 L268.3,205.8 L268.0,207.0 L267.9,208.3 L268.1,209.1 L268.1,210.4 L267.7,210.7 L267.4,212.0 L267.6,212.7 L267.1,213.5 L267.2,214.3 L267.6,214.8 L268.3,216.4 L269.4,217.6 L270.7,218.8 L271.7,219.9 L271.6,220.5 L272.8,220.7 L273.0,220.4 L273.8,221.1 L275.1,220.9 L276.3,220.2 L278.0,219.6 L279.0,218.7 L280.5,218.9 L280.4,219.2 L281.9,219.3 L283.2,219.8 L284.1,220.7 L285.1,221.5 L286.6,221.6 L288.7,219.5 L289.8,219.2 L289.8,218.2 L290.3,215.7 L291.9,214.4 L293.7,214.3 L293.9,213.7 L296.1,213.9 L298.3,212.4 L299.3,211.8 L300.7,210.4 L301.7,210.5 L302.4,211.3 L301.9,212.3 L301.8,213.0 L300.1,213.4 L301.1,214.7 L301.0,216.2 L299.8,218.0 L300.8,220.3 L302.0,220.1 L302.7,218.0 L301.8,216.9 L301.7,214.7 L305.1,213.5 L304.7,212.1 L305.7,211.2 L306.7,213.2 L308.7,213.3 L310.5,214.9 L310.6,215.9 L313.1,215.9 L316.0,215.6 L317.6,217.0 L319.8,217.3 L321.3,216.4 L321.3,215.7 L324.8,215.5 L328.1,215.4 L325.8,216.3 L326.7,217.7 L328.9,217.9 L331.0,219.4 L331.5,221.8 L332.9,221.7 L334.0,222.4 L335.8,223.5 L337.5,225.4 L337.6,226.9 L338.7,227.0 L340.2,228.4 L341.3,229.5 L344.6,230.0 L344.9,229.5 L347.1,229.3 L350.1,230.1 L351.1,230.4 L353.1,231.1 L356.0,233.6 L356.5,234.8 L357.5,234.7 L358.1,236.3 L359.7,241.5 L361.2,242.0 L361.3,244.0 L359.2,246.4 L360.0,247.3 L364.9,247.8 L365.0,250.8 L367.2,248.8 L370.6,249.9 L375.3,251.7 L376.6,253.4 L376.2,255.0 L379.4,254.1 L384.8,255.7 L388.9,255.6 L393.1,258.0 L396.6,261.3 L398.7,262.2 L401.1,262.3 L402.1,263.2 L403.1,267.0 L403.5,268.8 L402.4,273.7 L401.0,275.6 L397.1,279.7 L395.3,283.1 L393.3,285.6 L392.6,285.7 L391.8,287.8 L392.0,293.4 L391.2,297.9 L390.9,299.9 L390.0,301.0 L389.6,305.0 L386.7,308.9 L386.3,311.9 L384.0,313.2 L383.4,315.0 L380.3,314.9 L376.0,316.1 L374.0,317.4 L370.9,318.3 L367.6,320.6 L365.3,323.5 L364.9,325.7 L365.3,327.4 L364.8,330.4 L364.2,331.8 L362.3,333.4 L359.2,338.6 L356.7,341.0 L354.8,342.4 L353.6,345.2 L351.7,346.9 L350.5,348.7 L347.4,350.4 L345.4,349.8 L343.8,350.1 L341.3,348.8 L339.4,348.9 L337.7,347.3 L337.5,348.8 L341.0,351.3 L340.7,353.4 L342.4,354.7 L342.3,356.1 L339.6,359.9 L335.5,361.5 L329.9,362.1 L326.8,361.8 L327.4,363.6 L326.9,365.8 L327.4,367.3 L325.7,368.3 L322.9,368.7 L320.2,367.6 L319.1,368.4 L319.5,371.3 L321.4,372.2 L322.9,371.3 L323.7,372.8 L321.2,373.8 L318.9,375.6 L318.5,378.6 L317.9,380.1 L315.3,380.2 L313.1,381.7 L312.3,383.9 L315.0,386.0 L317.7,386.6 L316.7,389.3 L313.4,391.0 L311.6,394.4 L309.1,395.6 L308.0,397.0 L308.8,400.0 L310.7,401.7 L309.5,401.6 L307.1,401.6 L305.7,402.3 L303.2,403.4 L302.8,406.1 L301.6,406.2 L298.5,405.2 L295.3,403.2 L291.8,401.5 L290.9,399.6 L291.7,397.9 L290.3,395.9 L290.0,390.9 L291.2,388.0 L294.1,385.8 L289.9,384.9 L292.5,382.3 L293.5,377.4 L296.6,378.4 L298.0,372.3 L296.1,371.5 L295.3,375.2 L293.5,374.8 L294.4,370.6 L295.3,365.1 L296.6,363.1 L295.8,360.2 L295.6,356.9 L296.8,356.8 L298.5,352.0 L300.4,347.3 L301.6,342.9 L300.9,338.4 L301.8,336.0 L301.4,332.4 L303.0,328.8 L303.5,323.0 L304.4,316.9 L305.3,310.3 L305.1,305.5 L304.5,301.3 L301.7,299.6 L301.5,298.4 L296.0,295.4 L291.0,292.2 L288.9,290.4 L287.7,287.9 L288.2,287.1 L285.8,283.2 L283.1,277.8 L280.5,271.9 L279.3,270.5 L278.4,268.4 L276.3,266.4 L274.3,265.2 L275.2,263.9 L273.9,261.1 L274.7,259.0 L276.9,257.2 L278.4,254.9 L277.8,253.7 L276.8,255.0 L275.1,253.7 L275.7,252.9 L275.2,250.2 L276.2,249.8 L276.7,247.9 L277.7,246.0 L277.5,244.8 L279.1,244.2 L281.0,243.0 L280.6,242.1 L281.6,241.9 L281.5,240.4 L282.1,239.3 L283.5,239.1 L284.7,237.3 L285.8,235.7 L284.7,235.0 L285.3,233.3 L284.6,230.6 L285.2,229.8 L284.8,227.3 L283.7,225.8 L282.7,224.9 L282.1,223.3 L282.8,222.5 L282.1,222.3 L281.6,221.3 L280.2,220.5 L279.0,220.7 L278.4,221.7 L277.3,222.5 L276.7,222.6 L276.4,223.2 L277.8,224.8 L277.0,225.2 L276.6,225.6 L275.3,225.8 L274.8,224.0 L274.5,224.5 L273.6,224.3 L273.0,223.1 L271.9,222.9 L271.1,222.6 L269.9,222.6 L269.9,223.2 L269.5,222.8 L268.0,222.1 L267.5,221.5 L267.8,221.0 L267.7,220.4 L266.9,219.7 L265.8,219.1 L264.9,218.7 L264.7,217.8 L264.0,217.3 L264.1,218.2 L263.6,218.9 L262.9,218.0 L262.1,217.8 L261.7,217.2 L261.7,216.3 L262.1,215.3 L261.3,214.9 L261.9,214.3 L261.0,213.4 L259.7,212.2 L259.0,211.2 L257.9,210.3 L256.5,209.0 L256.8,208.5 L257.2,208.9 L257.5,208.7 L257.0,207.8 L256.1,207.6 L255.8,208.3 L254.2,208.2 L253.2,207.9 L252.1,207.3 L250.5,207.2 L249.7,206.5 L248.3,206.0 L246.6,206.0 L245.3,205.4 L243.8,204.1 L240.7,201.0 L239.2,200.0 L237.0,199.2 L235.4,199.5 L233.2,200.6 L231.8,200.9 L229.8,200.1 L227.7,199.5 L225.1,198.2 L223.1,197.7 L219.9,196.4 L217.6,195.0 L216.9,194.2 L215.3,194.0 L212.5,193.1 L211.3,191.7 L208.4,190.0 L207.0,188.2 L206.3,186.7 L207.2,186.4 L206.9,185.6 L207.6,184.8 L207.6,183.8 L206.7,182.5 L206.4,181.3 L205.5,179.8 L203.0,176.9 L200.2,174.6 L198.9,172.7 L196.5,171.5 L196.0,170.8 L196.4,169.0 L195.0,168.3 L193.4,166.9 L192.7,164.8 L191.2,164.6 L189.6,163.0 L188.3,161.6 L188.1,160.6 L186.6,158.4 L185.7,156.2 L185.7,155.0 L183.7,153.8 L182.8,154.0 L181.2,153.2 L180.7,154.4 L181.2,155.8 L181.5,158.0 L182.4,159.2 L184.5,161.2 L184.9,161.9 L185.4,162.2 L185.7,163.2 L186.2,163.1 L186.8,165.0 L187.6,165.8 L188.2,166.8 L190.0,168.3 L190.9,171.1 L191.7,172.4 L192.5,173.8 L192.6,175.3 L194.0,175.4 L195.1,176.8 L196.1,178.1 L196.0,178.6 L194.9,179.7 L194.4,179.7 L193.6,177.9 L191.8,176.2 L189.8,174.8 L188.4,174.0 L188.5,171.9 L188.1,170.3 L186.7,169.3 L184.8,168.0 L184.5,168.4 L183.8,167.6 L182.0,166.9 L180.4,165.2 L180.6,165.0 L181.8,165.1 L182.8,164.0 L182.9,162.7 L180.7,160.6 L179.1,159.8 L178.1,157.9 L177.1,156.0 L175.8,153.6 L174.6,151.0 L174.2,149.5 L172.4,147.8 L171.1,147.4 L170.8,146.6 L169.2,146.4 L168.2,145.6 L165.6,145.3 L164.9,144.9 L164.6,143.2 L161.9,140.3 L159.6,136.2 L159.7,135.5 L158.5,134.5 L156.3,132.0 L155.9,129.6 L154.5,128.0 L155.1,125.6 L155.0,123.0 L154.1,120.8 L155.2,118.0 L155.8,112.6 L155.3,108.7 L154.5,106.1 L153.7,104.8 L154.0,104.2 L158.0,105.2 L159.5,108.0 L160.2,107.2 L159.7,104.8 L158.8,102.3 L158.4,102.3 L153.0,99.4 L151.0,98.2 L146.0,96.9 L144.5,94.3 L144.9,92.5 L141.3,91.3 L140.8,88.9 L137.5,86.7 L137.4,85.2 L135.9,84.1 L133.4,83.2 L132.6,80.6 L129.1,78.2 L127.6,75.4 L124.9,75.2 L120.5,75.1 L117.2,74.3 L111.5,71.2 L108.8,70.7 L104.0,69.6 L100.1,69.9 L94.7,68.5 L91.4,67.2 L88.3,67.9 L88.8,69.9 L87.3,70.1 L84.1,70.7 L81.6,71.7 L78.6,72.3 L78.2,70.6 L79.4,67.7 L82.4,66.8 L81.6,66.1 L78.1,67.7 L76.2,69.7 L72.2,71.8 L74.2,73.2 L71.6,75.3 L68.6,76.6 L65.8,77.5 L65.1,78.8 L60.8,80.3 L59.9,81.7 L56.7,82.9 L54.8,82.7 L52.2,83.5 L49.3,84.6 L47.0,85.5 L42.3,86.4 L41.8,85.9 L44.9,84.5 L47.6,83.6 L50.5,82.0 L54.0,81.6 L55.4,80.4 L59.2,78.7 L59.8,78.1 L61.9,77.0 L62.4,74.8 L63.8,73.0 L60.6,73.9 L59.7,73.4 L58.2,74.5 L56.4,73.0 L55.6,74.1 L54.6,72.6 L51.8,73.8 L50.1,73.8 L49.9,72.0 L50.4,70.9 L48.6,69.9 L45.0,70.4 L42.6,69.1 L40.7,68.4 L40.7,66.7 L38.6,65.4 L39.6,63.7 L41.9,62.1 L42.9,60.6 L45.1,60.3 L47.0,60.8 L49.3,59.4 L51.3,59.6 L53.4,58.7 L52.9,57.4 L51.3,56.8 L53.4,55.7 L51.7,55.7 L48.7,56.4 L47.9,57.0 L45.7,56.4 L41.8,56.7 L37.7,56.0 L36.5,54.8 L33.0,53.1 L36.9,51.9 L43.1,50.4 L45.4,50.4 L45.0,51.9 L50.9,51.8 L48.6,50.0 L45.2,48.8 L43.3,47.4 L40.6,46.1 L36.8,45.2 L38.3,43.6 L43.3,43.5 L46.8,42.2 L47.4,40.7 L50.3,39.3 L53.0,39.0 L58.2,37.7 L60.8,37.9 L65.1,36.3 L69.3,36.9 L71.3,38.3 L72.5,37.7 L77.2,37.9 L77.0,38.5 L81.3,39.0 L84.1,38.7 L90.0,39.7 L95.3,40.0 L97.4,40.3 L101.1,39.9 L105.4,40.7 L108.4,41.2 L113.6,41.9 L117.9,43.3 L120.8,43.6 L123.3,42.3 L126.6,41.4 L130.8,41.8 L134.9,40.5 L139.5,39.7 L141.4,41.0 L143.4,40.3 L144.1,38.9 L146.0,39.2 L150.7,41.8 L154.4,39.8 L154.8,42.1 L158.2,41.6 L159.2,40.7 L162.6,40.9 L166.8,42.1 L173.3,43.2 L177.2,43.7 L179.9,43.5 L183.6,45.0 L179.7,46.5 L184.7,47.1 L192.2,46.8 L194.6,46.3 L197.6,48.0 L200.6,46.6 L197.7,45.3 L199.5,44.3 L202.9,44.2 L205.1,43.9 L207.4,44.6 L210.2,46.2 L213.3,45.9 L218.2,47.3 L222.5,46.8 L226.5,46.9 L226.2,45.0 L228.7,44.5 L233.0,45.5 L233.0,48.3 L234.8,46.0 L237.0,46.0 L238.2,43.1 L235.3,41.2 L232.0,40.0 L232.2,36.8 L235.5,34.6 L239.2,35.1 L242.0,36.4 L245.8,39.7 L243.3,41.2 L248.5,41.8 Z M182.9,31.1 L181.5,32.5 L187.7,31.6 L191.5,33.1 L194.7,31.6 L197.2,32.5 L199.5,35.4 L200.9,34.2 L198.9,31.2 L201.3,30.8 L204.1,31.2 L207.2,32.4 L209.0,35.3 L209.8,37.4 L214.5,38.8 L219.5,40.2 L219.2,41.5 L214.6,41.8 L216.4,42.9 L215.5,44.0 L210.4,43.5 L205.7,42.7 L202.4,42.9 L197.2,43.9 L189.0,44.4 L185.2,44.6 L183.7,43.2 L179.9,42.4 L177.5,42.8 L174.1,40.4 L175.9,40.1 L180.2,39.6 L184.1,39.7 L187.7,39.2 L182.4,38.5 L176.4,38.8 L172.5,38.7 L171.0,37.6 L177.5,36.4 L173.2,36.5 L168.3,35.7 L170.7,33.5 L172.6,32.3 L180.0,30.5 L182.9,31.1 Z M209.7,30.2 L207.3,32.2 L202.9,30.1 L203.9,29.7 L207.6,29.6 L209.7,30.2 Z M287.9,31.1 L288.2,32.0 L285.2,31.9 L282.2,31.8 L279.2,32.2 L278.4,32.0 L275.3,30.5 L275.5,29.4 L276.8,29.2 L283.2,29.5 L287.9,31.1 Z M259.6,31.0 L261.7,32.8 L264.3,30.4 L271.3,29.2 L276.1,32.3 L275.7,34.2 L281.2,33.4 L283.8,32.2 L290.0,33.7 L293.8,35.1 L294.2,36.4 L299.3,35.7 L302.2,37.6 L308.9,38.8 L311.3,40.0 L314.0,42.7 L308.9,44.1 L315.4,46.0 L319.8,46.7 L323.8,49.4 L328.2,49.6 L327.3,51.7 L322.5,55.1 L319.0,53.8 L314.7,51.0 L311.1,51.4 L310.7,53.0 L313.6,54.8 L317.4,56.1 L318.6,56.9 L320.4,59.8 L319.4,62.0 L315.9,61.2 L308.9,58.8 L312.9,61.3 L315.8,63.1 L316.2,64.1 L308.7,63.0 L302.7,61.3 L299.3,59.8 L300.3,59.0 L296.2,57.5 L292.1,56.0 L292.2,56.9 L284.1,57.4 L281.8,56.3 L283.6,54.2 L288.8,54.1 L294.6,53.7 L293.6,52.7 L294.6,51.2 L298.2,48.3 L297.4,47.0 L296.4,46.0 L292.1,44.6 L286.5,43.6 L288.3,42.8 L285.3,41.0 L282.9,40.8 L280.7,39.8 L279.2,40.7 L274.2,41.1 L264.0,40.4 L258.2,39.5 L253.7,39.1 L251.4,38.1 L254.3,36.7 L250.3,36.7 L249.4,33.7 L251.6,31.1 L254.4,29.9 L261.6,29.1 L259.6,31.0 Z M221.2,29.0 L224.5,29.6 L229.5,29.2 L230.2,30.1 L227.6,31.5 L231.8,32.7 L231.3,35.4 L226.8,36.6 L224.1,36.3 L222.2,35.2 L215.3,32.9 L215.3,32.0 L221.0,32.3 L217.9,30.4 L221.2,29.0 Z M898.9,30.8 L894.7,30.8 L889.0,30.5 L888.5,30.4 L891.1,29.2 L894.6,28.9 L898.6,30.0 L898.9,30.8 Z M241.1,32.1 L238.1,34.3 L235.0,34.2 L233.2,31.6 L233.3,30.2 L234.7,28.9 L237.5,28.1 L243.3,28.2 L248.6,28.9 L244.4,31.5 L241.1,32.1 Z M165.4,36.2 L158.1,37.6 L156.6,36.4 L150.2,34.8 L151.1,33.8 L153.3,31.4 L155.7,29.4 L153.0,27.6 L162.4,27.2 L166.4,27.8 L173.5,27.9 L176.2,28.8 L179.1,30.0 L175.6,30.8 L168.8,32.9 L165.4,34.9 L165.4,36.2 Z M918.7,25.3 L915.5,26.5 L911.0,26.2 L905.9,25.0 L906.5,24.1 L911.7,24.5 L918.7,25.3 Z M240.0,25.6 L238.5,26.7 L234.4,26.5 L231.1,25.8 L232.5,24.4 L236.5,23.6 L239.0,24.7 L240.0,25.6 Z M903.0,23.9 L900.8,26.1 L890.6,26.0 L886.0,26.7 L880.5,24.8 L882.0,22.7 L885.6,22.2 L893.0,22.3 L903.0,23.9 Z M226.4,20.5 L228.5,21.8 L228.6,23.3 L227.3,25.5 L222.8,25.8 L219.8,25.4 L219.8,23.6 L215.3,23.9 L215.1,21.6 L218.1,21.7 L222.3,20.7 L226.2,20.8 L226.4,20.5 Z M199.4,22.0 L200.5,23.0 L203.0,22.5 L205.9,22.7 L206.4,24.1 L204.7,25.5 L195.3,26.0 L188.3,27.3 L184.0,27.3 L183.7,26.4 L189.5,25.1 L176.9,25.4 L173.0,24.9 L176.8,22.0 L179.4,21.2 L187.3,22.2 L192.2,23.9 L197.0,24.1 L193.1,21.3 L195.6,20.2 L198.5,20.6 L199.4,22.0 Z M659.8,38.2 L658.2,38.4 L649.1,38.1 L648.4,36.7 L643.3,36.0 L642.9,34.4 L645.8,33.7 L645.7,32.1 L651.2,29.6 L648.6,29.2 L655.3,26.6 L654.5,25.3 L660.7,23.7 L669.9,21.8 L679.2,21.3 L683.9,20.2 L689.3,19.8 L691.3,21.0 L689.4,21.9 L679.5,23.4 L671.1,24.8 L662.4,27.6 L658.3,30.5 L653.9,33.3 L654.5,35.8 L659.8,38.2 Z M237.0,19.3 L240.1,20.3 L245.5,20.3 L247.9,21.3 L247.3,22.4 L250.5,23.0 L252.3,23.7 L256.0,23.9 L260.1,24.1 L264.5,23.5 L270.1,23.2 L274.6,23.4 L277.6,24.5 L278.2,25.8 L276.5,26.6 L272.4,27.2 L268.8,26.8 L260.8,27.3 L255.1,27.3 L250.7,27.0 L243.3,26.0 L242.3,24.4 L242.0,22.9 L239.2,21.6 L233.4,21.3 L230.2,20.4 L231.3,19.2 L237.0,19.3 Z M177.2,17.7 L176.8,20.0 L174.7,21.0 L172.1,21.2 L166.9,22.4 L162.5,22.9 L158.7,22.2 L163.5,20.0 L169.2,18.1 L173.4,18.2 L177.2,17.7 Z M239.3,18.1 L238.1,18.2 L232.9,18.0 L232.1,17.2 L237.7,17.2 L239.7,17.8 L239.3,18.1 Z M193.9,17.6 L188.7,18.4 L184.6,17.5 L186.9,16.5 L190.9,16.2 L194.9,16.7 L193.9,17.6 Z M568.7,17.1 L562.5,18.3 L557.6,17.6 L559.5,16.9 L557.8,15.9 L563.6,15.3 L564.7,16.4 L568.7,17.1 Z M195.4,14.9 L192.0,15.5 L187.4,15.5 L187.4,15.1 L190.3,14.2 L191.8,14.3 L195.4,14.9 Z M233.8,16.5 L229.7,17.1 L227.4,16.4 L226.2,15.3 L226.0,14.1 L229.6,14.2 L231.2,14.4 L234.6,15.4 L233.8,16.5 Z M222.1,15.7 L223.1,17.0 L218.6,16.6 L214.0,15.7 L207.8,15.6 L210.5,14.7 L207.2,14.0 L207.0,12.8 L212.4,13.2 L219.9,14.3 L222.1,15.7 Z M791.9,15.8 L776.2,16.9 L781.3,13.0 L783.6,12.7 L785.7,12.9 L792.7,14.6 L791.9,15.8 Z M550.7,11.7 L559.8,13.9 L552.9,15.0 L551.3,17.2 L548.9,17.7 L547.6,20.2 L544.2,20.3 L538.2,18.5 L540.7,17.5 L536.6,16.6 L531.2,14.1 L529.0,11.8 L536.6,10.7 L538.1,11.8 L542.1,11.7 L543.1,10.7 L547.2,10.6 L550.7,11.7 Z M570.7,9.6 L576.1,10.6 L572.0,12.2 L564.0,12.5 L555.8,12.1 L555.3,11.2 L551.3,11.2 L548.2,9.8 L556.8,9.0 L560.9,9.7 L563.7,8.8 L570.7,9.6 Z M642.0,9.2 L638.3,9.5 L635.8,9.8 L635.4,10.3 L632.2,10.7 L629.2,10.0 L630.8,9.1 L624.6,9.0 L630.0,8.5 L634.2,8.5 L634.8,9.3 L636.4,8.5 L639.0,8.1 L643.1,8.7 L642.0,9.2 Z M777.6,14.1 L771.5,14.4 L763.8,13.6 L759.2,12.5 L757.1,10.3 L753.3,9.8 L760.5,7.7 L766.5,7.1 L771.9,8.6 L778.3,11.4 L777.6,14.1 Z M258.3,11.8 L261.6,12.7 L257.8,13.6 L252.7,15.8 L247.8,16.0 L242.0,15.7 L239.0,14.5 L239.1,13.4 L241.3,12.6 L236.2,12.6 L233.1,11.6 L231.4,10.3 L233.3,9.0 L235.2,8.1 L238.1,7.9 L236.8,7.2 L243.3,7.1 L246.9,8.6 L251.5,9.3 L256.1,9.8 L258.3,11.8 Z M309.7,1.6 L317.1,1.8 L323.1,2.2 L328.2,3.0 L328.1,3.8 L321.3,5.1 L314.6,5.7 L312.1,6.3 L318.1,6.3 L311.6,8.1 L307.0,8.9 L302.3,11.4 L296.5,11.9 L294.8,12.5 L286.4,12.8 L290.2,13.1 L288.3,13.7 L290.6,15.1 L287.9,16.1 L283.6,17.0 L282.3,18.1 L278.4,19.0 L278.8,19.7 L283.6,19.6 L283.6,20.3 L276.2,22.1 L269.0,21.2 L260.8,21.7 L256.7,21.3 L251.4,21.2 L251.1,19.8 L256.2,19.1 L254.8,17.0 L256.5,16.8 L264.0,18.0 L260.2,16.1 L255.7,15.6 L257.9,14.4 L262.8,13.7 L263.6,12.7 L259.7,11.5 L258.5,10.0 L266.1,10.2 L268.3,10.5 L272.6,9.4 L266.4,9.1 L256.7,9.2 L251.8,8.2 L249.4,7.0 L246.2,6.2 L245.6,5.2 L249.7,4.6 L253.0,4.5 L258.4,4.0 L262.5,2.9 L265.9,3.1 L268.9,3.9 L271.1,2.3 L274.7,1.8 L279.7,1.5 L288.2,1.4 L289.7,1.7 L297.7,1.2 L303.7,1.4 L309.7,1.6 Z M424.7,0.4 L442.1,2.7 L437.0,3.9 L426.3,4.0 L411.4,4.3 L412.8,4.8 L422.6,4.5 L431.0,5.5 L436.4,4.6 L438.7,5.6 L435.6,7.4 L442.7,6.3 L456.2,5.1 L464.5,5.7 L466.1,7.0 L454.8,9.1 L453.2,9.7 L444.3,10.2 L450.7,10.4 L447.5,12.5 L445.3,14.5 L445.4,17.7 L448.7,19.7 L444.3,19.8 L439.8,20.7 L444.9,22.3 L445.6,24.8 L442.6,25.1 L446.2,27.6 L440.0,27.8 L443.2,29.0 L442.3,30.1 L438.4,30.5 L434.5,30.5 L438.0,32.5 L438.1,33.9 L432.6,32.6 L431.1,33.4 L434.9,34.2 L438.5,36.0 L439.6,38.4 L434.6,38.9 L432.5,37.8 L429.0,36.1 L430.0,38.1 L426.8,39.6 L434.1,39.8 L437.9,39.9 L430.5,42.5 L422.9,44.8 L414.8,45.9 L411.7,45.9 L408.9,47.0 L405.0,50.1 L399.0,52.2 L397.1,52.3 L393.4,53.0 L389.4,53.7 L387.0,55.6 L387.0,57.6 L385.6,59.6 L381.1,61.9 L382.2,64.2 L380.9,66.7 L379.5,69.6 L375.6,69.7 L371.5,67.3 L365.9,67.3 L363.2,65.7 L361.4,62.8 L356.6,59.1 L355.2,57.2 L354.8,54.6 L350.9,51.8 L351.9,49.7 L350.1,48.6 L352.8,45.2 L357.0,44.1 L358.1,42.8 L358.7,40.5 L355.5,41.6 L354.0,42.0 L351.5,42.4 L348.1,41.5 L347.9,39.5 L349.0,37.9 L351.6,37.8 L357.3,38.6 L352.5,36.8 L350.0,35.7 L347.2,36.2 L344.9,35.4 L348.0,32.7 L346.3,31.6 L344.1,29.5 L340.8,26.4 L337.2,25.2 L337.3,24.0 L329.8,22.3 L323.9,22.1 L316.5,22.2 L309.7,22.4 L306.5,21.5 L301.7,19.6 L309.0,18.7 L314.5,18.5 L302.7,17.8 L296.4,16.5 L296.8,15.4 L307.3,14.0 L317.5,12.6 L318.5,11.5 L311.0,10.4 L313.5,9.2 L323.1,7.2 L327.1,6.9 L326.0,5.5 L332.6,4.8 L341.1,4.3 L349.6,4.3 L352.7,5.2 L360.0,3.6 L366.7,4.7 L370.6,4.9 L376.3,5.9 L369.7,4.3 L370.1,3.0 L379.4,1.2 L389.2,1.4 L392.7,0.3 L402.5,0.0 L424.7,0.4 Z" fill="currentColor"/></svg>