<svg xmlns="http://www.w3.org/2000/svg" viewBox="0 0 40 40" fill="none">
  <defs>
    <linearGradient id="logoGrad" x1="0%" y1="0%" x2="100%" y2="100%">
      <stop offset="0%" style="stop-color:#0052D9"/>
      <stop offset="100%" style="stop-color:#3385FF"/>
    </linearGradient>
    <linearGradient id="logoAccent" x1="0%" y1="0%" x2="100%" y2="100%">
      <stop offset="0%" style="stop-color:#FF6B00"/>
      <stop offset="100%" style="stop-color:#FF8C33"/>
    </linearGradient>
  </defs>
  <!-- 背景圆 -->
  <rect width="40" height="40" rx="10" fill="url(#logoGrad)"/>
  <!-- 云形状 -->
  <path d="M12 24c-3.3 0-6-2.7-6-6 0-2.9 2.1-5.4 4.9-5.9C11.6 9.7 14.5 8 18 8c4.4 0 8 3.6 8 8 0 .3 0 .6-.1.9C28.1 17.5 30 19.7 30 22.5c0 3-2.5 5.5-5.5 5.5H12z" fill="white" opacity="0.95"/>
  <!-- 连接节点 -->
  <circle cx="15" cy="20" r="1.8" fill="url(#logoAccent)"/>
  <circle cx="20" cy="17" r="1.8" fill="url(#logoAccent)"/>
  <circle cx="25" cy="20" r="1.8" fill="url(#logoAccent)"/>
  <line x1="15" y1="20" x2="20" y2="17" stroke="#FF6B00" stroke-width="1.2" opacity="0.6"/>
  <line x1="20" y1="17" x2="25" y2="20" stroke="#FF6B00" stroke-width="1.2" opacity="0.6"/>
</svg>
