<svg xmlns="http://www.w3.org/2000/svg" viewBox="0 0 200 60"><defs><linearGradient id="g" x1="0" x2="1"><stop offset="0" stop-color="#ff8a00"/><stop offset="1" stop-color="#ff6a00"/></linearGradient></defs><rect width="200" height="60" rx="10" fill="transparent"/><g transform="translate(10,10)"><circle cx="20" cy="20" r="16" fill="url(#g)"/><path d="M12 20a8 8 0 0 1 14-5l-3 3a5 5 0 0 0-8 7l-4-4a8 8 0 0 1 1-1zm16 0a8 8 0 0 1-14 5l3-3a5 5 0 0 0 8-7l4 4a8 8 0 0 1-1 1z" fill="#fff"/></g><text x="60" y="28" font-family="Arial,sans-serif" font-size="20" font-weight="800" fill="#0f1e36">语云科技</text><text x="60" y="48" font-family="Arial,sans-serif" font-size="11" fill="#ff6a00" letter-spacing="2">YUYUN TECH</text></svg>
