<svg xmlns="http://www.w3.org/2000/svg" viewBox="0 0 1600 900" preserveAspectRatio="xMidYMid slice"><defs><linearGradient id="bg3" x1="0" x2="1" y1="0" y2="1"><stop offset="0" stop-color="#2a0a3a"/><stop offset=".5" stop-color="#4a1a5a"/><stop offset="1" stop-color="#6a2a7a"/></linearGradient></defs><rect width="1600" height="900" fill="url(#bg3)"/><g stroke="#ff6a00" stroke-width="2" fill="none" stroke-opacity=".5"><line x1="100" y1="200" x2="300" y2="300"/><line x1="300" y1="300" x2="600" y2="250"/><line x1="600" y1="250" x2="900" y2="400"/><line x1="900" y1="400" x2="1200" y2="300"/><line x1="1200" y1="300" x2="1450" y2="500"/><line x1="200" y1="550" x2="500" y2="600"/><line x1="500" y1="600" x2="800" y2="700"/><line x1="800" y1="700" x2="1300" y2="650"/></g><g fill="#ff6a00"><circle cx="100" cy="200" r="10"/><circle cx="300" cy="300" r="10"/><circle cx="600" cy="250" r="10"/><circle cx="900" cy="400" r="10"/><circle cx="1200" cy="300" r="10"/><circle cx="1450" cy="500" r="10"/><circle cx="200" cy="550" r="10"/><circle cx="500" cy="600" r="10"/><circle cx="800" cy="700" r="10"/><circle cx="1300" cy="650" r="10"/></g><text x="100" y="420" font-family="Arial" font-size="180" font-weight="800" fill="#fff" fill-opacity=".08">CDN</text></svg>
