<svg xmlns="http://www.w3.org/2000/svg" viewBox="0 0 200 200"><rect width="200" height="200" fill="#fff"/><g fill="#0f1e36"><rect x="10" y="10" width="40" height="40"/><rect x="20" y="20" width="20" height="20" fill="#fff"/><rect x="150" y="10" width="40" height="40"/><rect x="160" y="20" width="20" height="20" fill="#fff"/><rect x="10" y="150" width="40" height="40"/><rect x="20" y="160" width="20" height="20" fill="#fff"/><rect x="60" y="20" width="8" height="8"/><rect x="80" y="15" width="6" height="6"/><rect x="100" y="25" width="10" height="10"/><rect x="120" y="20" width="8" height="8"/><rect x="60" y="40" width="6" height="6"/><rect x="80" y="45" width="10" height="10"/><rect x="110" y="40" width="8" height="8"/><rect x="130" y="45" width="6" height="6"/><rect x="20" y="70" width="8" height="8"/><rect x="40" y="75" width="10" height="10"/><rect x="60" y="70" width="6" height="6"/><rect x="80" y="80" width="10" height="10"/><rect x="100" y="70" width="8" height="8"/><rect x="120" y="75" width="10" height="10"/><rect x="145" y="70" width="6" height="6"/><rect x="160" y="80" width="10" height="10"/><rect x="180" y="75" width="8" height="8"/><rect x="15" y="100" width="8" height="8"/><rect x="35" y="105" width="6" height="6"/><rect x="55" y="100" width="10" height="10"/><rect x="80" y="105" width="8" height="8"/><rect x="100" y="100" width="12" height="12"/><rect x="125" y="105" width="8" height="8"/><rect x="145" y="100" width="6" height="6"/><rect x="165" y="105" width="10" height="10"/><rect x="25" y="125" width="10" height="10"/><rect x="50" y="130" width="8" height="8"/><rect x="75" y="125" width="6" height="6"/><rect x="95" y="130" width="10" height="10"/><rect x="120" y="125" width="8" height="8"/><rect x="145" y="130" width="10" height="10"/><rect x="170" y="125" width="8" height="8"/><rect x="70" y="155" width="8" height="8"/><rect x="90" y="160" width="10" height="10"/><rect x="115" y="155" width="6" height="6"/><rect x="135" y="160" width="8" height="8"/><rect x="160" y="155" width="10" height="10"/><rect x="180" y="165" width="8" height="8"/><rect x="75" y="175" width="6" height="6"/><rect x="95" y="180" width="10" height="10"/><rect x="120" y="175" width="8" height="8"/><rect x="145" y="180" width="6" height="6"/><rect x="165" y="175" width="10" height="10"/></g></svg>
