<svg xmlns="http://www.w3.org/2000/svg" viewBox="0 0 1000 500" preserveAspectRatio="xMidYMid meet"><defs><pattern id="dots" width="10" height="10" patternUnits="userSpaceOnUse"><circle cx="5" cy="5" r="1.2" fill="#ff6a00" fill-opacity=".25"/></pattern><linearGradient id="sea" x1="0" x2="0" y1="0" y2="1"><stop offset="0" stop-color="#0f1e36"/><stop offset="1" stop-color="#1a2a4a"/></linearGradient></defs><rect width="1000" height="500" fill="url(#sea)"/><rect width="1000" height="500" fill="url(#dots)"/><g fill="#ffffff" fill-opacity=".55" stroke="#ff6a00" stroke-width=".5" stroke-opacity=".35"><path d="M150,120 Q200,100 250,110 Q300,120 340,100 Q380,90 410,120 Q430,150 420,180 Q400,210 360,220 Q320,230 280,220 Q240,210 210,200 Q180,190 160,170 Q140,150 150,120 Z"/><path d="M500,90 Q560,80 620,90 Q680,100 720,130 Q740,160 720,190 Q690,210 640,220 Q590,230 540,210 Q500,195 480,170 Q470,140 500,90 Z"/><path d="M780,130 Q820,120 870,140 Q900,165 890,200 Q870,230 830,235 Q790,240 770,210 Q760,180 780,130 Z"/><path d="M480,230 Q530,220 580,240 Q630,260 650,300 Q640,340 600,355 Q560,365 520,355 Q490,340 480,310 Q475,280 480,230 Z"/><path d="M700,250 Q740,240 780,260 Q820,280 830,310 Q835,340 810,360 Q780,370 750,360 Q720,350 705,320 Q695,290 700,250 Z"/><path d="M220,260 Q280,250 340,270 Q390,290 400,330 Q395,360 360,370 Q320,375 280,365 Q240,355 220,330 Q205,300 220,260 Z"/><path d="M80,220 Q120,210 150,230 Q175,250 180,280 Q185,310 165,330 Q140,345 115,340 Q90,335 75,310 Q65,280 80,220 Z"/><path d="M340,380 Q380,370 410,390 Q430,410 420,430 Q400,445 370,440 Q340,435 330,415 Q325,395 340,380 Z"/><path d="M850,350 Q890,345 910,365 Q920,385 910,400 Q890,410 870,405 Q850,400 840,385 Q835,365 850,350 Z"/></g><g stroke="#ff6a00" stroke-width="1" stroke-opacity=".25" fill="none"><line x1="200" y1="180" x2="620" y2="150"/><line x1="620" y1="150" x2="820" y2="180"/><line x1="620" y1="150" x2="550" y2="310"/><line x1="200" y1="180" x2="280" y2="320"/><line x1="550" y1="310" x2="750" y2="300"/><line x1="280" y1="320" x2="550" y2="310"/></g></svg>
